<svg xmlns="http://www.w3.org/2000/svg" viewBox="0 0 32 32" id="affiliatemoney">
  <g fill="#000000" class="color000000 svgShape">
    <path fill="#5d2784" d="m10.1699829,26.1300049c-.7399902,1.0999756-1.1699829,2.4299927-1.1699829,3.8699951H2c0-2.7600098,2.2399902-5,5-5,1.2000122,0,2.3099976.4299927,3.1699829,1.1300049Z" class="colorf45151 svgShape"></path>
    <circle cx="7" cy="22.5" r="2.5" fill="#5d2784" class="colorf45151 svgShape"></circle>
    <circle cx="25" cy="22.5" r="2.5" fill="#5d2784" class="colorf45151 svgShape"></circle>
    <path fill="#5d2784" d="m30,30h-7c0-1.4400024-.4299927-2.7700195-1.1699829-3.8699951.8599854-.7000122,1.9699707-1.1300049,3.1699829-1.1300049,2.7600098,0,5,2.2399902,5,5Z" class="colorf45151 svgShape"></path>
    <path fill="#b043ff" d="m24,10c0,3.4199829-2.1400146,6.3399658-5.1599731,7.4699707-.6300049-.8900146-1.6700439-1.4699707-2.8400269-1.4699707s-2.210022.5799561-2.8400269,1.4699707c-3.0199585-1.1300049-5.1599731-4.0499878-5.1599731-7.4699707,0-4.4200439,3.5800171-8,8-8s8,3.5799561,8,8Z" class="colorffc943 svgShape"></path>
    <path fill="#b043ff" d="M16 23c-1.9299927 0-3.5-1.5700073-3.5-3.5 0-.75.2399902-1.460022.6599731-2.0300293.6300049-.8900146 1.6700439-1.4699707 2.8400269-1.4699707s2.210022.5799561 2.8400269 1.4699707c.4199829.5700073.6599731 1.2800293.6599731 2.0300293 0 1.9299927-1.5700073 3.5-3.5 3.5zM23 30h-14c0-1.4400024.4299927-2.7700195 1.1699829-3.8699951 1.25-1.8900146 3.3900146-3.1300049 5.8300171-3.1300049s4.5800171 1.2399902 5.8300171 3.1300049c.7399902 1.0999756 1.1699829 2.4299927 1.1699829 3.8699951z" class="color43b3ff svgShape"></path>
  </g>
  <g fill="#000000" class="color000000 svgShape">
    <g fill="#000000" class="color000000 svgShape">
      <path d="M26.8638306 24.8321533c.6868896-.5501709 1.1361694-1.3855591 1.1361694-2.3321533 0-1.6542969-1.3457031-3-3-3s-3 1.3457031-3 3c0 .9450684.447876 1.7791748 1.1329346 2.3294678-.4199829.1514893-.8122559.3692017-1.1860962.6184082-.937439-1.2217407-2.236084-2.1518555-3.741272-2.6159058 1.0796509-.71698 1.7944336-1.9412842 1.7944336-3.3319702 0-2.2060547-1.7944336-4-4-4s-4 1.7939453-4 4c0 1.390686.7147827 2.6149902 1.7944336 3.3319702-1.505188.4640503-2.803833 1.394165-3.741272 2.6159058-.3738403-.2492065-.7661133-.4669189-1.1860962-.6184082.6850586-.550293 1.1329346-1.3843994 1.1329346-2.3294678 0-1.6542969-1.3457031-3-3-3s-3 1.3457031-3 3c0 .9465942.4492798 1.7819824 1.1361694 2.3321533-2.1166992.7661133-3.6361694 2.7905273-3.6361694 5.1678467 0 .2763672.2236328.5.5.5h12c.2763672 0 .5-.2236328.5-.5s-.2236328-.5-.5-.5h-4.480957c.2563477-3.3515625 3.0649414-6 6.480957-6s6.2246094 2.6484375 6.480957 6h-4.480957c-.2763672 0-.5.2236328-.5.5s.2236328.5.5.5h12c.2763672 0 .5-.2236328.5-.5 0-2.3773193-1.5194702-4.4017334-3.6361694-5.1678467zm-21.8638306-2.3321533c0-1.1025391.8969727-2 2-2s2 .8974609 2 2-.8969727 2-2 2-2-.8974609-2-2zm-2.472168 7c.2495117-2.2470703 2.159668-4 4.472168-4 .8912354 0 1.7584229.2821045 2.4989624.7758789-.5532227.9619751-.8961182 2.0562744-.9736328 3.2241211H2.527832zm10.472168-10c0-1.6542969 1.3457031-3 3-3s3 1.3457031 3 3-1.3457031 3-3 3-3-1.3457031-3-3zm10 3c0-1.1025391.8969727-2 2-2s2 .8974609 2 2-.8969727 2-2 2-2-.8974609-2-2zm.4746704 7c-.0775146-1.1678467-.4204102-2.262146-.9736328-3.2241211.7405396-.4937744 1.6077271-.7758789 2.4989624-.7758789 2.3125 0 4.2226562 1.7529297 4.472168 4h-5.9974976zM18 8.5c.2763672 0 .5-.2236328.5-.5s-.2236328-.5-.5-.5h-1.5v-.5c0-.2763672-.2236328-.5-.5-.5s-.5.2236328-.5.5v.5h-.5c-.8271484 0-1.5.6728516-1.5 1.5s.6728516 1.5 1.5 1.5h.5v1h-1.5c-.2763672 0-.5.2236328-.5.5s.2236328.5.5.5h1.5v.5c0 .2763672.2236328.5.5.5s.5-.2236328.5-.5v-.5h.5c.8271484 0 1.5-.6728516 1.5-1.5s-.6728516-1.5-1.5-1.5h-.5v-1h1.5zm-1 2c.2758789 0 .5.2246094.5.5s-.2241211.5-.5.5h-.5v-1h.5zm-1.5-1h-.5c-.2758789 0-.5-.2246094-.5-.5s.2241211-.5.5-.5h.5v1z" fill="#000000" class="color000000 svgShape"></path>
      <path d="M20.6879883 15.8554688c-.2158203.171875-.2504883.4873047-.0776367.7021484.0986328.1230469.2441406.1875.390625.1875.109375 0 .2202148-.0361328.3120117-.1103516 2.0253906-1.6230469 3.1870117-4.0410156 3.1870117-6.6347656 0-4.6865234-3.8129883-8.5-8.5-8.5S7.5 5.3134766 7.5 10c0 2.59375 1.1616211 5.0117188 3.1870117 6.6347656.215332.1738281.5302734.1386719.7026367-.0771484.1728516-.2148438.1381836-.5302734-.0776367-.7021484-1.7871094-1.4335938-2.8120117-3.5673828-2.8120117-5.8554688 0-4.1357422 3.3642578-7.5 7.5-7.5s7.5 3.3642578 7.5 7.5c0 2.2880859-1.0249023 4.421875-2.8120117 5.8554688zM3.5 10c0 .2763672.2236328.5.5.5h1c.2763672 0 .5-.2236328.5-.5s-.2236328-.5-.5-.5h-1c-.2763672 0-.5.2236328-.5.5zM28 10.5c.2763672 0 .5-.2236328.5-.5s-.2236328-.5-.5-.5h-1c-.2763672 0-.5.2236328-.5.5s.2236328.5.5.5h1zM6.2236328 15.0673828l-.8657227.5c-.2392578.1376953-.3212891.4433594-.1831055.6826172.0927734.1601562.2607422.25.4335938.25.0849609 0 .1708984-.0214844.2495117-.0673828l.8657227-.5c.2392578-.1376953.3212891-.4433594.1831055-.6826172-.1391602-.2392578-.4453125-.3222656-.6831055-.1826172zM25.5268555 5c.0849609 0 .1708984-.0214844.2495117-.0673828l.8657227-.5c.2392578-.1376953.3212891-.4433594.1831055-.6826172-.1391602-.2392578-.4453125-.3232422-.6831055-.1826172l-.8657227.5c-.2392578.1376953-.3212891.4433594-.1831055.6826172.0927734.1601562.2607422.25.4335938.25zM25.2763672 15.9326172l.8657227.5c.0786133.0458984.1645508.0673828.2495117.0673828.1728516 0 .3408203-.0898438.4335938-.25.1381836-.2392578.0561523-.5449219-.1831055-.6826172l-.8657227-.5c-.2397461-.1396484-.5454102-.0566406-.6831055.1826172-.1381836.2392578-.0561523.5449219.1831055.6826172zM6.7236328 4.0673828l-.8657227-.5c-.2397461-.140625-.5454102-.0566406-.6831055.1826172-.1381836.2392578-.0561523.5449219.1831055.6826172l.8657227.5c.0786133.0458984.1645508.0673828.2495117.0673828.1728516 0 .3408203-.0898438.4335938-.25.1381836-.2392578.0561523-.5449219-.1831055-.6826172z" fill="#000000" class="color000000 svgShape"></path>
      <circle cx="16" cy="30" r=".5" fill="#000000" class="color000000 svgShape"></circle>
    </g>
  </g>
</svg>