<svg xmlns="http://www.w3.org/2000/svg" viewBox="0 0 750 500" xmlns:v="https://vecta.io/nano"><style><![CDATA[.B{fill:#39393b}.C{fill:#ea9b7a}.D{fill:#ced3e6}.E{fill:#fff}.F{fill:#d96c63}.G{fill:#faaf3a}.H{fill:#585859}.I{fill:#df615c}.J{fill:#c77e2e}.K{fill:#084fc7}.L{fill:#0875f7}.M{fill:#21b573}.N{clip-path:url(#H)}]]></style><path d="M0 0h750v500H0z" fill="#edeef1"/><g opacity=".8" class="D"><g opacity=".5"><path d="M384.886 173.444c-23.979-3.54-46.706-13.303-66.317-28.105-29.292-22.109-90.591-59.731-149.067-40.991-80.656 25.848-81.016 100.624-60.007 141.242s169.991 159.565 363.133 140.639C645.462 369.292 679.142 175.43 586.964 140.35c-79.949-30.426-107.225 47.098-202.078 33.094z"/></g><g opacity=".5"><ellipse cx="633.704" cy="144.751" rx="7.494" ry="8.066"/></g><path d="M144.422 91.614c2.3-.423 4.626.849 5.436 3.043 1.381 3.743-2.235 7.934-7.102 6.055h0c-4.199-3.109-2.371-8.355 1.666-9.098z"/><circle transform="matrix(.1607 -.987 .987 .1607 443.0052 666.255)" cx="613.243" cy="72.652" r="9.762"/><g opacity=".8"><path d="M174.015 83.916c1.47 5.245-1.589 10.688-6.834 12.159s-10.688-1.589-12.159-6.834 1.589-10.688 6.834-12.159 10.689 1.589 12.159 6.834z"/></g><path d="M564.211 377.728c2.181-.843 4.704-.026 5.907 1.979 2.053 3.421-.721 8.212-5.852 7.27h0c-4.703-2.273-3.884-7.769-.055-9.249zm27.646-13.067c2.42 4.88.426 10.797-4.454 13.217s-10.797.426-13.217-4.454-.426-10.797 4.454-13.217 10.796-.426 13.217 4.454z"/><circle cx="594.852" cy="57.713" r="6.005"/></g><g opacity=".8" class="D"><path d="M616.854 166.51c-.008-53.652-44.68-112.441-100.276-115.993l-2.96-.163c-79.704-3.715-85.777 93.498-157.89 104.461s-127.184-44.386-213.473-8.274c-77.498 32.433-98.489 214.682 129.214 221.99 182.181 5.848 345.409-41.949 345.385-202.021z"/></g><g class="D"><ellipse cx="473.996" cy="424.479" rx="175.706" ry="9.064"/><path d="M593.009 399.108H568.66v25.323h28.473v-21.2c0-2.277-1.846-4.123-4.124-4.123zm-154.601-54.26h84.52v54.261h-84.52z"/></g><g class="E"><path d="M587.551 424.431H354.382v-9.401c0-8.794 7.129-15.923 15.922-15.923h201.324c8.794 0 15.922 7.129 15.922 15.923v9.401z"/><path d="M428.049 344.848h84.52v54.261h-84.52z"/></g><g class="D"><path d="M428.049 361.509l84.52-6.767.013-9.894H428.16z"/><path d="M662.581 120.783v212.786c0 6.236-5.057 11.293-11.293 11.293H290.41c-6.236 0-11.293-5.056-11.293-11.293V120.783c0-6.236 5.056-11.293 11.293-11.293h360.879c6.236 0 11.292 5.057 11.292 11.293z"/></g><path d="M662.581 120.783v197.05H627.67V109.49h23.619c6.236 0 11.292 5.057 11.292 11.293z" class="H"/><path d="M648.223 120.783v212.786c0 6.236-5.057 11.293-11.293 11.293H290.41c-6.236 0-11.293-5.056-11.293-11.293V120.783c0-6.236 5.056-11.293 11.293-11.293h346.52a10.38 10.38 0 0 1 .501.011c.124.006.245.011.366.022h.014a4.64 4.64 0 0 1 .262.025c.146.011.29.031.436.051a3.05 3.05 0 0 1 .284.045c.045.006.09.014.135.023.093.014.183.031.276.053a11.3 11.3 0 0 1 9.019 11.063z" class="E"/><path d="M639.205 109.721l-.276-.053-.135-.023-.284-.045-.436-.051-.262-.025h-.014l-.366-.022-.501-.011H290.41c-6.236 0-11.293 5.057-11.293 11.293v197.05h369.105v-197.05c.001-5.457-3.871-10.01-9.017-11.063zm-5.623 188.43a3.07 3.07 0 0 1-3.072 3.072H296.829a3.07 3.07 0 0 1-3.072-3.072V127.202a3.07 3.07 0 0 1 3.072-3.072H630.51a3.07 3.07 0 0 1 3.072 3.072v170.949z" class="B"/><path d="M633.582 127.202V298.15a3.07 3.07 0 0 1-3.072 3.072H296.829a3.07 3.07 0 0 1-3.072-3.072V127.202a3.07 3.07 0 0 1 3.072-3.072H630.51a3.07 3.07 0 0 1 3.072 3.072z" class="D"/><path d="M633.582 127.202v16.132H293.758v-16.132a3.07 3.07 0 0 1 3.072-3.072h333.681a3.07 3.07 0 0 1 3.071 3.072z" class="E"/><path d="M607.261 133.475a2.61 2.61 0 0 1-2.609 2.609 2.61 2.61 0 0 1-2.609-2.609 2.61 2.61 0 0 1 2.609-2.609 2.61 2.61 0 0 1 2.609 2.609z" class="I"/><circle cx="613.109" cy="133.475" r="2.609" fill="#5392f3"/><path d="M591.34 136.236H325.865c-1.339 0-2.435-1.096-2.435-2.435v-.652c0-1.339 1.096-2.434 2.435-2.434H591.34c1.339 0 2.435 1.095 2.435 2.434v.652c-.001 1.339-1.096 2.435-2.435 2.435z" fill="#d2dcec"/><path d="M306.027 133.475v2.555a.47.47 0 0 1-.703.406l-2.213-1.278-2.213-1.278a.47.47 0 0 1 0-.812l2.213-1.278 2.213-1.278a.47.47 0 0 1 .703.406v2.557zm3.888 0v2.555a.47.47 0 0 0 .703.406l2.213-1.278 2.213-1.278a.47.47 0 0 0 0-.812l-2.213-1.278-2.213-1.278a.47.47 0 0 0-.703.406v2.557z"/><g class="B"><path d="M619.235 135.655l-.117-.117c-.256-.256-.256-.67 0-.926l3.505-3.505c.256-.256.67-.256.926 0l.117.117c.256.256.256.67 0 .926l-3.505 3.505c-.256.255-.67.255-.926 0z"/><path d="M623.549 135.655l.117-.117c.256-.256.256-.67 0-.926l-3.505-3.505c-.256-.256-.67-.256-.926 0l-.117.117c-.256.256-.256.67 0 .926l3.505 3.505c.256.255.67.255.926 0z"/></g><path d="M587.836 294.344H338.593c-3.547 0-6.422-2.875-6.422-6.422V153.651c0-3.547 2.875-6.422 6.422-6.422h249.244c3.547 0 6.422 2.875 6.422 6.422v134.271c-.001 3.547-2.876 6.422-6.423 6.422z" class="E"/><g class="D"><use href="#B"/><path d="M408.03 208.995h-57.463c-.882 0-1.596-.715-1.596-1.596h0c0-.882.715-1.596 1.596-1.596h57.463c.882 0 1.596.715 1.596 1.596h0c0 .882-.714 1.596-1.596 1.596z"/><use href="#B" y="13.506"/><use href="#C"/><path d="M584.595 208.995h-57.463c-.882 0-1.596-.715-1.596-1.596h0c0-.882.715-1.596 1.596-1.596h57.463c.882 0 1.596.715 1.596 1.596h0c0 .882-.715 1.596-1.596 1.596z"/><use href="#C" y="13.506"/></g><path d="M332.171 271.497h262.088v21.487a1.36 1.36 0 0 1-1.361 1.358H333.532a1.36 1.36 0 0 1-1.361-1.358v-21.487z" class="B"/><path d="M568.515 279.966v-1.937h2.424v-1.723h-3.285a.86.86 0 0 0-.862.862v2.799h1.723zm0 3.447h-1.724v2.946a.86.86 0 0 0 .862.862h3.285v-1.723h-2.424v-2.085zm7.468-3.447h1.723v-2.799a.86.86 0 0 0-.862-.862h-3.159v1.723h2.298v1.938zm0 3.447v2.084h-2.298v1.723h3.159a.86.86 0 0 0 .862-.862v-2.946h-1.723zm-228.545-1.279v-5.443l4.714 2.722 4.714 2.721-4.714 2.722-4.714 2.722zm26.134 5.013h-1.239c-.463 0-.841-.379-.841-.841v-8.227c0-.463.379-.841.841-.841h1.239c.463 0 .841.379.841.841v8.227c0 .462-.379.841-.841.841zm6.104 0h-1.239c-.463 0-.841-.379-.841-.841v-8.227c0-.463.379-.841.841-.841h1.239c.463 0 .842.379.842.841v8.227c-.001.462-.38.841-.842.841z" class="E"/><path d="M332.171 267.202h262.088v4.296H332.171z" class="D"/><path d="M332.171 267.204h134.48v4.296h-134.48z" class="I"/><path d="M552.35 250.486h2.957v6.477h3.959v2.293h-6.916v-8.77zm7.729 0h2.957v8.77h-2.957v-8.77zm13.756 0l-3.708 8.77h-2.907l-3.709-8.77h3.182l2.093 5.124 2.142-5.124h2.907zm7.579 6.54v2.23h-7.292v-8.77h7.129v2.23h-4.222v1.027h3.709v2.13h-3.709v1.153h4.385z" class="B"/><path d="M547.482 254.8c0 1.992-1.615 3.606-3.606 3.606s-3.606-1.615-3.606-3.606 1.615-3.606 3.606-3.606 3.606 1.614 3.606 3.606z" class="I"/><path d="M364.183 257.24c0 2.002-1.899 3.297-4.622 3.297s-4.622-1.296-4.622-3.297c0-1.03.515-1.84 1.384-2.37-.633-.5-1.016-1.178-1.016-2.031 0-1.87 1.752-3.077 4.254-3.077s4.254 1.207 4.254 3.077c0 .854-.383 1.531-1.016 2.031.869.53 1.384 1.34 1.384 2.37zm-3.488-.117c0-.663-.471-1.075-1.134-1.075s-1.133.412-1.133 1.075.471 1.074 1.133 1.074 1.134-.412 1.134-1.074zm-1.958-4.137c0 .559.353.883.824.883s.824-.324.824-.883-.353-.883-.824-.883-.824.324-.824.883zm6.092 2.164c0-3.415 1.943-5.388 4.666-5.388s4.666 1.972 4.666 5.388-1.943 5.387-4.666 5.387-4.666-1.972-4.666-5.387zm5.844 0c0-1.987-.5-2.606-1.177-2.606s-1.178.618-1.178 2.606.5 2.605 1.178 2.605 1.177-.617 1.177-2.605z" class="B"/><path d="M348.899 252.257a3.17 3.17 0 0 1-3.167 3.167 3.17 3.17 0 0 1-3.167-3.167 3.17 3.17 0 0 1 3.167-3.167 3.17 3.17 0 0 1 3.167 3.167zm2.754 8.016h-11.842s1.346-3.763 5.831-3.763l.09.003.09-.003a6.13 6.13 0 0 1 5.831 3.763z" class="I"/><defs><path id="A" d="M342.214 267.493l-1.317 4.029.044-115.115c0-.704-.044-.593-.044-83.947h258.87l.034 195.026-257.587.007z"/><path id="B" d="M408.03 222.502h-57.463c-.882 0-1.596-.715-1.596-1.596h0c0-.882.715-1.596 1.596-1.596h57.463c.882 0 1.596.715 1.596 1.596h0c0 .881-.714 1.596-1.596 1.596z"/><path id="C" d="M584.595 222.502h-57.463c-.882 0-1.596-.715-1.596-1.596h0c0-.882.715-1.596 1.596-1.596h57.463c.882 0 1.596.715 1.596 1.596h0c0 .881-.715 1.596-1.596 1.596z"/><path id="D" d="M465.6 264.858a1.57 1.57 0 1 0 3.131-.267 1.57 1.57 0 1 0-3.131.267z"/><path id="E" d="M258.349 444.892c-.365 0-.697-.247-.789-.618-.108-.436.157-.877.593-.985l3.083-.765a.81.81 0 0 1 .985.593c.108.436-.157.877-.593.985l-3.083.765c-.065.017-.131.025-.196.025z"/><path id="F" d="M141.956 254.426c-.202 0-.402-.082-.548-.244-.272-.302-.248-.768.055-1.04l4.911-4.42c.302-.272.768-.248 1.04.055s.248.768-.055 1.04l-4.911 4.42c-.14.126-.316.189-.492.189z"/><path id="G" d="M694.318 423.961h-70.035a2.41 2.41 0 0 1-2.411-2.411v-1.107a2.41 2.41 0 0 1 2.411-2.411h70.035a2.41 2.41 0 0 1 2.411 2.411v1.107a2.41 2.41 0 0 1-2.411 2.411z"/></defs><clipPath id="H"><use href="#A"/></clipPath><g class="N"><path d="M382.123 180.744s-1.584 9.661-8.699 11.392c-5.746 1.395-11.162-4.123-13.035-6.297-.448-.52-.691-.848-.691-.848s-.427.045-1.066.035c-1.498-.02-4.162-.326-5.204-2.168-1.486-2.625 3.922-4.418 3.922-4.418s-2.773-2.476-2.079-4.277c.685-1.77 4.404-2.14 4.404-2.14s-4.005-2.6-2.665-4.869c2.016-3.41 6.16.341 6.49.548-.262-.3-5.451-5.669-2.611-6.635 2.479-.843 6.555 1.946 9.235 4.709l.665.691s.161-.122.443-.31c1.341-.897 5.455-3.298 8.076-1.109 3.171 2.648 2.815 15.696 2.815 15.696z" class="C"/><g class="F"><path d="M374.697 186.677c-.175.085-.389.077-.563-.039-.259-.174-.328-.525-.154-.784.937-1.395 1.227-2.818.861-4.229-.939-3.618-5.778-6.121-5.827-6.146-.278-.141-.388-.482-.247-.76s.482-.389.76-.247c.217.111 5.342 2.764 6.407 6.869.451 1.738.109 3.468-1.017 5.143-.057.086-.134.151-.22.193z"/><path d="M369.758 172.75c-.003.669-.279 1.201-.797 1.538a1.93 1.93 0 0 1-.366.186 4.14 4.14 0 0 1-1.018.23c.276.183.526.378.724.59a1.94 1.94 0 0 1 .436.663c.119.337.172.855-.25 1.425-.908 1.201-2.998 1.692-4.702 1.893 1.219.718 2.28 1.695 2.632 2.675.224.634.151 1.23-.218 1.722-.256.34-.689.64-1.224.899-1.332.648-3.28 1.053-4.583 1.268l-.692-.849s-.43.047-1.07.038c.081-.067.183-.108.294-.119 2.091-.244 5.671-.977 6.375-1.914.09-.125.18-.311.055-.666-.387-1.079-2.417-2.507-4.173-2.94-.282-.067-.462-.331-.425-.617a.56.56 0 0 1 .567-.494c1.396.026 5.237-.212 6.261-1.576.148-.198.111-.305.087-.361-.09-.256-.41-.523-.855-.782-.905-.526-2.318-1.012-3.344-1.256a.54.54 0 0 1-.291-.177.55.55 0 0 1-.128-.503c.073-.303.375-.492.683-.419l1.102.305c.948.111 1.864.163 2.553.093.413-.041.744-.125.957-.262.128-.084.276-.23.282-.602.006-.465-.23-1.082-.608-1.713-.119-.198-.099-.448.047-.631.253-.32.724-.291.922.043.47.792.77 1.607.767 2.313z"/></g><g class="B"><path d="M365.618 162.178c.974.603 1.823 1.162 2.646 1.944l1.861 1.656c.038-.064-.038.06 0 0l-10.856-46.06c-.163-.707-1.219-.492-1.093.224l7.442 42.236zm9.438 25.578c-3.763 2.428-4.819.631-4.819.631l-1.908-10.818c.055-.058.108-.122.157-.186.422-.57.369-1.088.25-1.425a1.94 1.94 0 0 0-.436-.663c-.128-.137-.276-.265-.439-.387l-.041-.235a3.94 3.94 0 0 0 .773-.198 1.9 1.9 0 0 0 .366-.186c.343-.224.582-.535.698-.913.457.436 1.024.689 1.693.759.181.02.361.023.547.017l3.159 13.604z"/></g><path d="M378.327 170.866c-.107.096-1.767 1.546-3.707 2.489-1.075.522-2.237.889-3.269.781-.85-.089-1.538-.477-2.043-1.155-1.79-2.405-.258-5.545.816-7.203l.665.691.443-.31c-.925 1.366-2.471 4.199-1.019 6.147.311.421.721.651 1.254.706 1.992.21 5.088-2.089 6.112-2.992a.56.56 0 0 1 .796.049c.208.232.184.59-.048.797z" class="F"/><path d="M436.444 159.693l-.002-.021c-.001-.004 0-.022-.003-.004l-.013.061-.029.137-.068.332-.15.734-.165.766-.178.782-.789 3.191-1.932 6.404-2.335 6.274-1.331 3.054-1.403 3.005-3.144 5.775-.846 1.395-.865 1.379-1.816 2.681c-1.22 1.778-2.567 3.438-3.909 5.093l-4.319 4.659-1.128 1.109-1.171 1.059-.584.532-.146.133.075-.068.102-.086c.138-.113.283-.214.436-.308a6.85 6.85 0 0 1 2.105-.975l.501-.125.251-.038.212-.036a3.57 3.57 0 0 1 .418-.032 2.26 2.26 0 0 1 .329-.013c.051 0 .119.01.155.008l.116.001c.074.002.162.019.221.026.046.001.092.007.138.017l.064.017c.009 0 .019 0 .027.002.165.052-.163.002-.652-.211-.497-.208-1.16-.558-1.882-.984l-2.306-1.518c-1.61-1.135-3.296-2.5-4.985-3.947l-5.075-4.634-5.044-5.004-4.975-5.23-2.454-2.66-2.357-2.582-18.223 13.669.607.919.576.851 1.15 1.671 2.354 3.27 4.943 6.378 5.316 6.211 2.837 3.045 2.997 3 6.71 5.859 3.965 2.833c1.429.932 2.984 1.84 4.798 2.701 1.82.852 3.898 1.684 6.559 2.241l.494.1.536.086 1.083.15 1.173.093.592.031.632.005 1.283-.034 1.366-.136.685-.094.717-.14 1.429-.342c1.939-.547 3.857-1.449 5.549-2.585l1.193-.889.29-.232.262-.215.209-.186.836-.744 1.668-1.494 1.609-1.551c2.154-2.062 4.133-4.28 6.061-6.53l5.332-7.055c1.681-2.411 3.191-4.916 4.629-7.447l1.043-1.915.991-1.936.956-1.949.92-1.962c2.383-5.256 4.297-10.669 5.787-16.18.731-2.762 1.388-5.541 1.892-8.375.253-1.418.491-2.841.681-4.3l.137-1.1.125-1.12.112-1.156.105-1.391-24.06-2.205z" class="G"/><g class="J"><path d="M379.225 190.733a1.571 1.571 0 0 0 3.131-.267 1.571 1.571 0 1 0-3.131.267zm32.67 27.002a.67.67 0 0 0 .651-.508c1.261-5.043 1.101-11.37 1.094-11.637a.671.671 0 1 0-1.342.038c.002.063.161 6.412-1.054 11.274a.67.67 0 0 0 .488.814c.055.013.109.019.163.019z"/><path d="M416.191 212.874c.101 0 .203-.023.299-.071.332-.166.466-.569.301-.901-.092-.184-2.263-4.523-3.287-5.816a.671.671 0 1 0-1.052.834c.939 1.184 3.116 5.538 3.138 5.581a.67.67 0 0 0 .601.373zm-41.794-9.099a.67.67 0 0 0 .482-.204c5.621-5.797 18.308-14.955 18.435-15.047a.671.671 0 0 0-.785-1.089c-.129.092-12.912 9.321-18.615 15.202a.67.67 0 0 0 .015.949.68.68 0 0 0 .468.189z"/><path d="M379.828 198.818a.67.67 0 0 0 .516-1.101l-6.784-8.142a.67.67 0 1 0-1.031.859l6.784 8.142c.132.16.323.242.515.242z"/></g><path d="M453.033 357.239l9.096-53.683.746-4.388-26.186-9.243-1.494-.526-6.236-2.2-1.273 6.243-.291 1.501c-2.457 12.695-7.065 38.862-8.318 62.295h33.956z" class="B"/><path d="M448.391 357.239l9.287-54.509a.71.71 0 0 0-.587-.811c-.384-.064-.748.2-.81.586l-9.334 54.734h1.444z" class="H"/><path d="M506.013 270.061s1.971 18.696-2.283 29.105-59.317 5.052-73.35-4.316c-5.756-3.843 6.503-39.299 6.503-39.299l69.13 14.51z" class="B"/><g class="H"><path d="M427.395 294.945c.834-.147 1.646-.356 2.437-.628 1.264-.427 2.471-1.012 3.622-1.753a19.13 19.13 0 0 0 3.234-2.638c6.07-6.124 7.857-15.38 7.942-15.832a.71.71 0 0 0-.566-.826.71.71 0 0 0-.825.566c-.02.11-1.88 9.737-8.044 15.564a16.97 16.97 0 0 1-2.513 1.982c-1.094.704-2.248 1.252-3.458 1.648-.503.164-1.015.302-1.538.413l-.291 1.504zm33.974 5.229c-.018.373.281.694.668.716.396.019.726-.271.745-.647l.44-7.789.089-1.381 1.794-22.855.126-1.389.318-3.428-1.4-.226-.319 3.453-.127 1.389-1.784 22.678-.094 1.408-.456 8.071z"/><path d="M459.355 291.157c.221.105 1.211.566 2.47.946l1.396.352c.443.085.892.149 1.338.174.855.048 1.682-.042 2.371-.372.859-.411 1.416-1.158 1.609-2.158.514-2.636 1.593-13.52 2.319-21.219l.132-1.384.306-3.303-1.406-.175-.31 3.339-.129 1.384-2.301 21.102c-.113.59-.383.968-.852 1.193-.748.357-1.871.282-2.987.039a14.99 14.99 0 0 1-1.392-.379 17.04 17.04 0 0 1-1.939-.76c-.35-.167-.774-.03-.946.307s-.029.746.321.914z"/></g><path d="M499.169 357.239l6.121-62.033.13-1.413 1.014-11.108c-3.378-1.408-9.507-.44-16.026 1.411l-1.418.411c-11.585 3.471-23.863 9.328-23.863 9.328v63.405h34.042z" class="B"/><g class="H"><path d="M495.841 357.239l4.142-54.573c.027-.391-.266-.729-.657-.755s-.726.267-.753.658l-4.15 54.67h1.418zm-10.756-83.144c.062.328 1.029 5.344 3.904 10.41 1.694 2.986 4.051 5.988 7.272 8.061 2.706 1.741 5.731 2.624 9.03 2.641l.13-1.414c-3.079.003-5.889-.806-8.394-2.414-2.878-1.852-5.033-4.555-6.619-7.283-2.929-5.038-3.919-10.178-3.933-10.257a.71.71 0 0 0-.823-.568.71.71 0 0 0-.567.824z"/></g><path d="M428.451 268.881c15.243 14.228 51.288 21.794 79.072 8.265 3.047-8.329 6.399-38.055 7.297-46.94.181-1.769.325-3.539.442-5.311.562-8.522.442-17.106.029-26.09l-.07-1.468-1.418-23.186c-1.015-16.106-6.39-26.029-15.728-27.514-4.343-.69-7.777-1.913-10.309-3.109-.31-.146-.602-.29-.886-.436-3.012-1.535-4.717-2.919-4.717-2.919h-20.829c-1.793 2.615-4.053 4.258-6.484 5.419a25.09 25.09 0 0 1-.816.371c-7.393 3.191-16.015 2.556-17.793 11.473-1.117 5.598 3.17 17.114 2.72 40.464a187.01 187.01 0 0 1-.178 5.331l-.328 5.352-.462 5.305-.541 4.905-.699 5.288c-1.389 9.705-5.109 32.321-8.302 44.8z" class="G"/><g class="J"><path d="M499.84 273.745c-.055 0-.11-.007-.165-.022-.333-.091-.529-.434-.439-.767 11.569-42.418 9.233-85.533 9.209-85.964-.02-.344.243-.64.588-.66s.64.244.66.588c.025.433 2.371 43.752-9.25 86.365a.63.63 0 0 1-.603.46zm-62.774-55.092a.67.67 0 0 0 .666-.596c1.384-12.268 1.4-36.675 1.4-36.92a.671.671 0 1 0-1.342 0c0 .244-.016 24.576-1.392 36.769a.67.67 0 0 0 .592.742c.025.003.051.005.076.005z"/><use href="#D"/><path d="M465.35 272.455a1.571 1.571 0 1 0 3.131-.267 1.571 1.571 0 1 0-3.131.267zm-18.339-83.573c-4.089-4.749-2.556-15.322-2.488-15.769a.67.67 0 0 1 .664-.571h13.871a.67.67 0 0 1 .664.571c.067.448 1.601 11.02-2.488 15.769-1.299 1.509-3.019 2.274-5.111 2.274s-3.813-.765-5.112-2.274zm-1.233-14.998c-.256 2.233-.937 10.42 2.25 14.122 1.047 1.216 2.386 1.807 4.094 1.807s3.046-.591 4.093-1.806c3.185-3.698 2.506-11.89 2.251-14.124h-12.688z"/></g><path d="M484.042 88.816c-3.884-2.513-16.106-3.775-16.106-3.775s-2.013-5.285-4.278-6.795c-5.15-3.434-5.788 3.523-5.788 3.523s-5.033-7.046-9.563-5.033 1.258 8.556 1.258 8.556-6.795-1.258-6.04 4.53 7.298 8.305 7.298 8.305-2.013 3.272-1.007 8.556 3.272 5.536 3.272 5.536l28.186 2.517s5.788 0 7.298-7.298-3.523-10.318-3.523-10.318 3.271-5.535-1.007-8.304z" class="B"/><path d="M461.018 136.631v5.295c.619.501 1.246.936 1.874 1.313 9.194 5.522 19.112-1.313 19.112-1.313v-18.358l-18.484 11.505-2.502 1.558z" class="C"/><path d="M461.018 136.479v5.447c.619.501 1.246.936 1.874 1.313 7.828-3.099 13.526-11.312 13.526-11.312l-12.898 3.147-2.502 1.405z" class="B"/><g class="G"><path d="M481.958 136.547s6.185 1.035 7.885 8.117c-6.028 6.306-11.357 11.773-19.982 13.371v-12.667s7.612-1.903 12.097-8.821z"/><path d="M460.825 138.377s-5.526 1.186-7.674 8.256c5.571 6.779 8.547 9.33 16.71 11.402v-12.667s-4.551-.073-9.036-6.991z"/></g><path d="M457.711 236.829l3.581 8.647v.003l1.609 3.885 4.545 10.978 2.193-4.239.779-1.501 1.761-3.399.776-1.501 1.761-3.399.776-1.5 1.761-3.399v-.003l.779-1.498 1.654-3.195-.035-.347-.258-2.534-.585-5.745-.258-2.538-.585-5.745-.258-2.535-.585-5.745-.258-2.534-.585-5.749-.258-2.534-.585-5.745-.258-2.535-.585-5.745-.258-2.537-.585-5.743-.258-2.537-.585-5.746-.258-2.534-.604-5.939-4.39-.172-.129.988-.265 2.011-.602 4.559-.266 2.011-.601 4.559-.266 2.013-.601 4.559-.266 2.011-.601 4.559-.266 2.011-.602 4.561-.265 2.011-.602 4.559-.265 2.011-.602 4.558-.266 2.014-.601 4.559-.266 2.011-.601 4.558-.266 2.014-.601 4.559-.266 2.011-.602 4.558-.265 2.014z" class="B"/><g class="H"><path d="M467.261 164.468l5.646 5.646-.258-2.534-5.123-5.123zm-.868 6.57l7.357 7.359-.258-2.537-6.833-6.833zm-.867 6.572l9.067 9.067-.258-2.537-8.543-8.543zm-.867 6.57l10.777 10.777-.258-2.535-10.253-10.253zm-.867 6.57l12.487 12.486-.258-2.534-11.963-11.963zm-.867 6.572l14.197 14.197-.258-2.534-13.674-13.674zm-.867 6.57l15.907 15.907-.258-2.535-15.384-15.383zm-.868 6.572l17.618 17.618-.258-2.538-17.094-17.094zm-.867 6.57l19.328 19.327-.258-2.534-18.804-18.804zm-.867 6.572l17.797 17.795.779-1.498-18.31-18.311zm-.867 6.57l16.127 16.127.776-1.5-16.637-16.638zm-.867 6.572l14.457 14.455.776-1.501-14.968-14.968zm3.57 8.731l1.609 3.885 6.738 6.739.779-1.501z"/><path d="M472.046 161.642l-2.185 3.248-2.205-3.42-.385 2.922 2.556 2.601 2.449-3.09z"/></g><path d="M475.717 156.185l-5.856 8.705-5.612-8.705 5.612-7.27z" class="B"/><g class="J"><path d="M479.118 162.14a.67.67 0 0 0 .418-.146c5.797-4.622 10.734-16.569 10.942-17.075a.67.67 0 1 0-1.243-.508c-.048.117-4.697 11.366-10.002 16.084l-8.818-11.977c-.128-.174-.332-.278-.548-.273a.67.67 0 0 0-.542.285l-8.227 11.68c-1.255-2.267-4.558-8.291-7.333-13.874a.67.67 0 0 0-.9-.302c-.332.165-.467.568-.303.9 3.502 7.048 7.84 14.788 7.883 14.866a.67.67 0 0 0 .551.342c.23.013.45-.095.583-.284l8.306-11.792 8.69 11.804c.108.147.272.243.452.268.033 0 .062.002.091.002z"/><path d="M469.875 149.586a.67.67 0 0 0 .671-.671v-2.998a.67.67 0 1 0-1.342 0v2.998a.67.67 0 0 0 .671.671z"/></g><path d="M454.401 113.166s-3.007-3.553-4.707 0-.392 10.744 4.184 9.567l.523-9.567z" class="F"/><path d="M451.194 125.625s-.016 10.947 11.371 10.922c11.316-.021 19.027-8.908 19.428-9.319l.136-2.312.643-11.942.345-6.382s1.445-11.493-9.477-13.588c-7.98-1.532-15.463-.207-19.239 3.956a8.08 8.08 0 0 0-.352.413c-1.189 1.463-1.945 3.248-2.148 5.352l-.354 11.464-.087 2.81-.266 8.626z" class="C"/><g class="B"><path d="M464.268 105.969s4.777 3.558 7.621 1.289-3.781-4.74-5.959-4.554-3.081 2.458-1.662 3.265zm-5.2 0s-4.777 3.558-7.621 1.289 3.781-4.74 5.959-4.554 3.081 2.458 1.662 3.265z"/></g><path d="M462.832 127.055c1.824.163 3.186-.984 3.255-1.044.211-.181.235-.499.053-.71s-.498-.235-.709-.054c-.073.062-1.648 1.366-3.499.544-.254-.113-.552.001-.664.255s.001.551.255.664c.455.203.894.308 1.309.345z" class="F"/><path d="M467.768 119.24s-6.947 1.398-10.456 1.084c0 0 1.305 5.17 6.475 3.865 4.024-1.015 3.981-4.949 3.981-4.949z" class="E"/><path d="M454.05 97.374c1.786-.632 3.077-.044 5.859 1.179 4.024 1.767 8.522.177 12.498-1.855s6.361.795 5.006 2.65-1.207 3.357.295 5.723-2.841 3.465-.442 5.321c1.011.782.951 1.949.542 3.037-.445 1.187.597 2.402 1.844 2.17h0c1.295-.329 3.12-2.624 3.12-2.624l.345-6.382s1.445-11.493-9.477-13.588c-7.98-1.532-15.463-.207-19.239 3.956a8.06 8.06 0 0 0-.351.413z" class="B"/><g class="F"><path d="M466.398 115.599c0 .797 1.642 1.443 3.667 1.443s3.666-.646 3.666-1.443-1.642-1.443-3.666-1.443-3.667.647-3.667 1.443zM451.461 117c.283.028.579.042.883.042 2.023 0 3.665-.647 3.665-1.444s-1.642-1.443-3.665-1.443l-.797.035-.086 2.81z"/></g><g class="B"><path d="M464.811 111.213c0 1.094.496 1.982 1.109 1.982s1.109-.887 1.109-1.982-.496-1.982-1.109-1.982-1.109.887-1.109 1.982zm-11 0c0 1.094.496 1.982 1.109 1.982s1.109-.887 1.109-1.982-.497-1.982-1.109-1.982-1.109.887-1.109 1.982zm24.618 11.573c.052.121 1.492 3.463 3.564 4.442l.134-2.312c.001 0-1.796-.306-3.698-2.13z"/></g><path d="M480.434 115.184s4.377-5.879 7.583-1.259c2.642 3.807-2.353 13.728-7.583 10.329v-9.07z" class="C"/><g class="B"><path d="M481.033 122.483a.45.45 0 0 0 .447-.401c.487-4.449 4.214-6.001 4.372-6.064a.45.45 0 1 0-.334-.837c-.179.071-4.387 1.803-4.933 6.803a.45.45 0 0 0 .399.497l.049.002z"/><path d="M485.235 119.753a.45.45 0 0 0 .285-.799c-.18-.146-1.795-1.418-3.147-1.072a.451.451 0 0 0 .223.873c.778-.199 1.964.581 2.356.899.083.066.183.099.283.099zm-23.979-3.03a.45.45 0 1 0 0-.9c-1.657 0-2.431-.875-2.688-1.253l3.599-7.473a.451.451 0 0 0-.813-.389l-3.702 7.685a.45.45 0 0 0-.003.387c.038.079.938 1.943 3.607 1.943z"/></g><path d="M570.207 157.31s6.063 6.122 12.05 3.736c4.833-1.93 5.904-8.65 6.139-11.164.056-.602.064-.961.064-.961s.329-.186.783-.519c1.064-.778 2.819-2.356 2.628-4.209-.273-2.641-5.067-1.169-5.067-1.169s.726-3.191-.69-4.128c-1.394-.921-4.251.711-4.251.711s1.547-3.908-.572-4.851c-3.185-1.418-4.245 3.386-4.375 3.703.035-.349 1.551-15.076-.979-14.321-2.208.659-4.242 12.969-4.755 16.318l-.125.835s-.177-.006-.476.004c-1.419.041-5.595.416-6.359 3.324-.925 3.513 5.985 12.691 5.985 12.691z" class="C"/><g class="F"><path d="M582.612 146.904c-.507 1.138-.77 2.379-.522 3.263.162.569.519.959 1.035 1.123.356.113.819.106 1.335.02 1.287-.215 2.889-.917 3.935-1.428l.063-.96s.331-.185.785-.519c-.092-.006-.186.016-.271.064-1.623.891-4.565 2.191-5.548 1.877-.127-.042-.288-.132-.38-.447-.272-.971.455-3.033 1.494-4.237a.49.49 0 0 0-.009-.66.49.49 0 0 0-.66-.064c-.989.73-3.864 2.517-5.294 2.062-.208-.066-.236-.162-.248-.214-.065-.229.029-.585.215-.997.38-.838 1.147-1.908 1.758-2.606.07-.082.11-.175.119-.274.018-.157-.038-.317-.165-.427a.5.5 0 0 0-.704.047c-.273.312-1.221 1.433-1.791 2.588-.207.421-.365.848-.419 1.24a1.71 1.71 0 0 0 .026.699c.086.302.312.702.905.893 1.267.397 3.017-.316 4.341-1.043z"/><path d="M575.01 142.72a.49.49 0 0 1 .355.428c.051.646.196 1.206.437 1.54.193.263.374.292.51.287.221-.01.502-.118.818-.3.786-.449 1.794-1.339 2.659-2.208a.48.48 0 0 1-.119.274c-.612.698-1.379 1.768-1.758 2.607l-.298.182c-.315.178-.622.315-.903.386-.125.03-.242.049-.357.053-.543.023-1.013-.22-1.357-.698-.363-.505-.563-1.241-.628-2.048-.028-.343.294-.602.624-.506z"/><path d="M567.892 148.288c.126.014 2.056.208 3.929-.105 1.037-.173 2.058-.503 2.743-1.106a2.48 2.48 0 0 0 .877-1.87c.058-2.638-2.643-4.109-4.259-4.751l-.125.835s-.177-.006-.476.004c1.36.508 3.914 1.752 3.866 3.889-.009.46-.185.835-.539 1.146-1.322 1.166-4.715 1.096-5.911.971-.272-.03-.519.167-.546.441a.5.5 0 0 0 .441.546zm10.667 9.491c.169-.028.318-.143.383-.315a.5.5 0 0 0-.289-.641c-1.384-.522-2.317-1.395-2.774-2.595-1.172-3.074 1.023-7.337 1.045-7.38a.5.5 0 0 0-.21-.671.5.5 0 0 0-.671.21c-.099.191-2.422 4.707-1.093 8.195.563 1.477 1.69 2.543 3.352 3.171.085.032.173.04.257.026z"/></g><path d="M504.783 150.164l10.363 9 4.987 4.606 4.989 4.554 4.993 4.454 4.982 4.263 4.826 3.85 2.107 1.48.401.256.163.102c.035.024.039.032.06.051.063.059.103.1.13.136.053.07.045.125.114.18.064.057.222.098.512.079.577-.036 1.665-.407 2.906-1.129s2.619-1.758 3.983-2.976a53.87 53.87 0 0 0 4.093-4.11c2.686-3.01 5.279-6.399 7.726-9.954 2.461-3.551 4.2-6.291 6.423-10.069 3.595 4.343 9.111 6.494 15.1 5.773-1.69 4.591-3.639 9.053-5.84 13.477-2.225 4.412-4.689 8.78-7.685 13.057-1.502 2.137-3.118 4.272-4.988 6.348s-3.952 4.131-6.494 6.065c-1.273.962-2.663 1.901-4.23 2.745s-3.305 1.609-5.248 2.187-4.088.958-6.334 1a23.04 23.04 0 0 1-6.711-.855c-1.078-.301-2.119-.674-3.104-1.101l-.72-.326-.606-.296c-.209-.101-.381-.194-.57-.291l-.546-.288c-1.401-.758-2.603-1.489-3.751-2.217-2.281-1.453-4.333-2.893-6.343-4.348a224.01 224.01 0 0 1-5.816-4.423l-5.587-4.495-5.441-4.569-5.328-4.648-5.233-4.731-2.586-2.402-1.285-1.218-1.303-1.252 16.891-17.965z" class="G"/><g class="J"><path d="M514.673 192.675c-.124 0-.249-.037-.358-.113-6.841-4.789-19.007-14.879-19.129-14.98-.266-.221-.302-.615-.082-.88s.615-.302.88-.082c.122.101 12.249 10.158 19.048 14.918.283.198.352.588.154.87-.122.174-.316.267-.513.267z"/><path d="M500.52 181.762c-.03 0-.06-.002-.091-.007l-4.82-.701c-.342-.049-.578-.367-.529-.708s.366-.581.708-.529l4.82.701c.342.049.578.367.529.708-.044.312-.311.536-.617.536zm79.757-13.272c.249-.129.39-.413.328-.7a.64.64 0 0 0-.758-.487c-9.076 1.977-13.596-6.68-13.641-6.768-.159-.313-.543-.438-.856-.279a.64.64 0 0 0-.279.857c.049.096 5.021 9.618 15.047 7.434a.64.64 0 0 0 .159-.057z"/><path d="M575.611 168.657c.126-.066.231-.173.291-.314l2.988-6.977c.138-.323-.011-.697-.334-.836s-.698.012-.836.335l-2.988 6.977c-.138.323.011.697.334.836a.64.64 0 0 0 .545-.021zm-5.351-6.708c.281.541.947.751 1.488.47s.751-.947.47-1.488-.947-.751-1.488-.47-.751.948-.47 1.488zm-28.802 28.988c.172-.089.301-.255.335-.461.007-.04.675-4.015 1.858-6.337.16-.313.035-.697-.278-.856s-.697-.035-.856.278c-1.273 2.499-1.952 6.536-1.98 6.707-.057.347.177.674.524.732a.64.64 0 0 0 .397-.063z"/><path d="M545.592 189.505c.041-.021.079-.047.116-.077.269-.226.305-.627.079-.896-.018-.021-1.789-2.156-2.213-4.237-.07-.344-.406-.567-.751-.497s-.567.406-.497.751c.49 2.401 2.404 4.704 2.485 4.801a.64.64 0 0 0 .781.155z"/></g></g><ellipse cx="186.664" cy="463.186" rx="144.84" ry="8.814" class="D"/><path d="M177.629 217.852l14.631 53.496-5.215-6.012c1.933 1.026 4.168 1.816 6.643 2.371s5.172.878 7.991 1.024 5.762.121 8.768-.004l9.199-.617.017-.001c4.601-.392 8.649 3.02 9.042 7.621.374 4.387-2.739 8.275-7.014 8.968-3.217.513-6.488.998-9.844 1.387s-6.797.679-10.359.759-7.251-.056-11.067-.609c-3.807-.553-7.758-1.546-11.618-3.211-2.471-1.066-4.23-3.094-5.03-5.457l-.185-.555-17.552-52.61a11.29 11.29 0 0 1 7.135-14.28 11.29 11.29 0 0 1 14.28 7.135c.059.186.126.408.178.595z" class="C"/><g class="J"><path d="M183.263 411.788c-.218 0-.439-.037-.656-.115l-76.645-27.633c-1.004-.362-1.525-1.47-1.163-2.474s1.47-1.526 2.474-1.163l76.645 27.633c1.004.362 1.525 1.47 1.163 2.474-.284.787-1.027 1.278-1.818 1.278z"/><path d="M103.434 411.788c-.791 0-1.533-.489-1.818-1.275-.363-1.004.156-2.112 1.16-2.476l77.554-28.088c1.004-.363 2.112.156 2.476 1.16s-.156 2.112-1.159 2.476l-77.555 28.088a1.97 1.97 0 0 1-.658.115z"/></g><g class="G"><path d="M190.079 461.172a3.31 3.31 0 0 1-3.275-2.87L172.96 354.937h-57.93l-13.628 103.359a3.31 3.31 0 0 1-3.713 2.848 3.31 3.31 0 0 1-2.848-3.713l14.007-106.235a3.31 3.31 0 0 1 3.28-2.876h63.726a3.31 3.31 0 0 1 3.279 2.869l14.228 106.235a3.31 3.31 0 0 1-2.84 3.718c-.148.02-.296.03-.442.03z"/><path d="M157.398 351.628H116.01c-13.112 0-27.153-7.176-29.167-20.133a245.77 245.77 0 0 1-2.606-49.502c.85-17.414 9.165-33.615 22.855-44.411h0s8.267 36.029-2.128 85.756c3.969 18.896 52.434 28.29 52.434 28.29z"/></g><path d="M148.773 140.316s-4.923-11.856-17.946-9.624c-9.103 1.561-12.982 12.903-12.445 30.416.78 25.489-7.842 40.85-7.842 40.85l11.444 2.601c-.001.001 29.13-43.695 26.789-64.243zM253.15 416.879h-18.486s-4.278-20.519-5.713-32.025-2.181-38.784-2.181-38.784-14.733 4.785-45.571 2.982c-68.33-3.992-42.421-54.193-42.421-54.193 2.309 3.189 16.45.977 26.115 2.501 29.666 2.847 55.394 14.491 70.835 21.152 3.719 1.603 7.023 3.3 9.918 5.085 3.723 2.295 6.052 9.256 7.455 18.413 4.22 27.523.049 74.869.049 74.869z" class="B"/><g class="H"><path d="M236.957 406.992a.66.66 0 0 1-.648-.531c-2.666-13.2-3.561-29.629-4.281-42.83-.597-10.946-1.16-21.285-2.566-22.528-1.139-1.006-5.868-.221-11.855.773-11.909 1.977-29.906 4.965-49.753.347-10.811-2.515-18.758-7.767-23.622-15.608-8.387-13.523-4.564-30.288-4.524-30.456.084-.355.441-.576.796-.492a.66.66 0 0 1 .492.796c-.038.163-3.734 16.415 4.367 29.464 4.672 7.527 12.34 12.576 22.791 15.008 19.591 4.558 37.431 1.596 49.236-.363 7.07-1.174 11.337-1.882 12.948-.459 1.74 1.538 2.229 9.097 3.011 23.447.717 13.158 1.61 29.534 4.257 42.64.072.358-.159.707-.518.78-.044.008-.088.012-.131.012z"/><path d="M253.503 407.34l-20.571-.441a.66.66 0 0 1-.647-.675c.008-.366.307-.664.676-.647l20.557.441a.66.66 0 1 1-.015 1.322z"/></g><path d="M252.64 440.564h-13.048l-2.513-15.308-1.376-8.377h16.212l.257 8.377z" class="C"/><path d="M252.64 440.564h-13.048l-1.871-11.396-.642-3.912h15.093l.125 4.055z" class="G"/><path d="M252.297 429.311l-14.576-.143-.642-3.912h15.093z" class="J"/><path d="M284.84 461.172h-49.353c-.366-.666-.566-1.612-.648-2.741-.309-4.176 1.021-10.837 1.674-15.038.08-.491.148-.948.2-1.362.091-.703.148-1.287.148-1.717 0-3.428 3.034-2.841 3.034-2.841 4.994 4.899 10.648-2.445 13.951-.036a20.86 20.86 0 0 0 .437.334 53.25 53.25 0 0 1 1.283 1.048c.842.703 2.022 1.724 3.621 3.161 3.916 3.525 10.58 5.852 16.255 8.224a41.62 41.62 0 0 1 2.017.905c.473.228.919.457 1.34.685 4.637 2.504 6.113 4.897 6.448 6.637.319 1.67-.407 2.741-.407 2.741z" class="L"/><g class="K"><path d="M278.797 451.795c-1.271 1.012-4.098 3.036-6.366 3.036a3.27 3.27 0 0 1-.298-.011c-1.601-.134-7.483-3.025-12.268-5.654-2.743-1.508-5.247-2.991-7.048-4.18-2.954-1.947-3.466-2.69-3.582-3.207-.432-1.947 2.788-3.305 5.047-4.007a53.25 53.25 0 0 1 1.283 1.048c-2.804.764-5.108 1.963-5.001 2.645.275.578 3.195 2.804 10.18 6.627 5.329 2.916 10.382 5.274 11.504 5.368 1.519.123 3.753-1.26 5.21-2.35a32.42 32.42 0 0 1 1.339.685zm6.043 9.377h-49.351c-.367-.667-.567-1.613-.649-2.741h50.406c.319 1.669-.406 2.741-.406 2.741z"/><path d="M240.523 461.172h-1.466c1.463-1.672 2.832-4.236 2.653-7.902-.238-4.876-3.164-8.164-5.197-9.876l.2-1.363c2.191 1.675 5.884 5.341 6.172 11.18.171 3.502-.978 6.113-2.362 7.961z"/></g><g class="E"><use href="#E"/><path d="M255.285 442.326c-.365 0-.697-.247-.789-.617-.108-.436.157-.877.593-.985l3.083-.765c.435-.109.877.157.985.593s-.157.877-.593.985l-3.083.765a.82.82 0 0 1-.196.024z"/><use href="#E" x="3.083" y="1.792"/><path d="M264.515 448.407c-.365 0-.697-.248-.789-.618-.108-.436.157-.877.593-.985l3.083-.765c.436-.109.877.158.985.593s-.157.877-.593.985l-3.083.765a.78.78 0 0 1-.196.025zm3.361 1.593c-.365 0-.697-.247-.789-.618-.108-.436.158-.877.593-.985l3.083-.765c.436-.108.877.157.985.593s-.158.877-.594.985l-3.083.765a.76.76 0 0 1-.195.025z"/><use href="#E" x="13.172" y="6.467"/></g><path d="M104.559 278.946s-.585 3.985 4.757 5.106l55.676 1.856s3.762-1.891 3.084-6.554c0 .001-23.508-13.201-63.517-.408z" class="K"/><path d="M165.755 297.361c-28.9 15.897-60.456 3.096-60.456 3.096 1.544-4.212 2.687-8.962 3.517-13.282a146.4 146.4 0 0 0 1.75-11.8c12.294-.675 42.427-1.956 54.235.844l.094 4.731.86 16.411z" class="C"/><path d="M144.408 289.736c-.214 1.49-.887 2.626-1.503 2.538s-.943-1.368-.729-2.858.887-2.626 1.503-2.538.943 1.368.729 2.858zm20.486-8.786c-12.306-.748-36.523-1.007-56.078 6.224a146.4 146.4 0 0 0 1.75-11.8c12.294-.675 42.427-1.956 54.235.844l.093 4.732z" class="F"/><path d="M178.624 258.085c-.115.356-.255.69-.415 1.004l-.184.351c-1.547 2.871-3.944 5.358-5.95 7.129l-1.189 1.004-1.803 1.378-.631.432-.007.086-.059.678-.174 3.229-.093 3.256-.042 2.723c-16.333-7.296-49.968-2.691-63.516-.41l.683-3.436c.958-5.167 1.495-9.82 1.709-13.985.322-6.203-.221-15.525-1.537-25.154l-.263-1.874-.187-1.22c-.462-3.023-.999-6.051-1.613-8.988-2.672-12.816-.796-26.269 12.197-27.86l2.775-.317c6.125-.653 11.164-.877 12.563-.931l.388-.015 25.119 7.296 2.389.692 3.816 1.287 1.454.533a63.77 63.77 0 0 1 3.325 1.346c2.011.889 3.605 1.756 4.865 2.652 5.511 3.912 4.656 8.332 4.516 17.062 0 .039-.002.079-.002.118l-.005.336c-.003.049 0 .101 0 .15l-.003 1.068c.007 1.127.047 2.249.115 3.372.093 1.648.241 3.286.42 4.892l.223 1.918.228 1.778c1.009 7.644 2.254 14.341.888 18.42z" class="L"/><g class="K"><path d="M176.758 226.153l-.005.336c-.003.049 0 .101 0 .15l-.003 1.068-5.277 3.313c-.16.101-.344.133-.518.103-.199-.034-.383-.15-.499-.334a.74.74 0 0 1 .233-1.017l5.597-3.512c.146-.09.312-.124.472-.107z"/><use href="#F"/><path d="M177.738 239.667l-3.364 3.028a.73.73 0 0 1-.494.189c-.201 0-.403-.081-.548-.243-.273-.302-.248-.769.054-1.041l4.123-3.71.229 1.777zm-45.742-3.014c-.115-.166-.162-.377-.112-.589.093-.396.49-.641.886-.548l6.432 1.515c.396.093.641.49.548.886s-.49.641-.886.548l-6.431-1.516a.73.73 0 0 1-.437-.296z"/><use href="#F" x="-32.906" y="-5.157"/><path d="M166.214 248.217a.73.73 0 0 1 .405-.442c.373-.163.807.008.969.381l2.638 6.058a.74.74 0 0 1-.381.97c-.373.162-.807-.008-.969-.381l-2.638-6.058c-.076-.175-.08-.362-.024-.528zm12.41 9.868c-.115.356-.255.69-.415 1.004l-.184.351-3.588-1.132c-.182-.057-.324-.177-.413-.329-.103-.172-.135-.388-.069-.594.123-.388.535-.604.923-.481l3.746 1.181zm-20.279.528c.201-.02.409.041.57.187.301.273.324.739.05 1.04l-4.44 4.893c-.273.301-.739.324-1.041.05a.74.74 0 0 1-.051-1.041l4.441-4.893a.74.74 0 0 1 .471-.236zm-2.615-11.282c-.199-.035-.382-.15-.498-.334a.74.74 0 0 1 .232-1.016l5.597-3.513a.74.74 0 0 1 1.016.232.74.74 0 0 1-.232 1.016l-5.597 3.513a.74.74 0 0 1-.518.102zm3.566-21.279c.134.15.207.355.183.571-.044.405-.408.697-.812.653l-6.569-.716c-.404-.044-.697-.408-.652-.812s.408-.697.812-.652l6.569.716c.188.019.352.109.469.24zm-9.551-14.248c.048-.196.175-.371.367-.474.359-.193.805-.058.997.3l3.127 5.821a.74.74 0 0 1-.3.998c-.358.193-.805.058-.998-.301l-3.126-5.821c-.09-.167-.108-.353-.067-.523zm22.33 54.765l-1.189 1.004-.864-2.2a.73.73 0 0 1-.005-.528c.071-.189.219-.349.42-.427.378-.15.805.037.955.415l.683 1.736zm-60.398-11.194c-.095-.178-.118-.393-.044-.598a.74.74 0 0 1 .943-.444l6.217 2.237a.74.74 0 0 1 .444.943.74.74 0 0 1-.943.444l-6.217-2.237a.74.74 0 0 1-.4-.345zm3.046 8.403c.201.002.402.086.546.249.27.305.241.77-.064 1.04l-4.949 4.378c-.305.269-.77.241-1.04-.064s-.241-.77.064-1.04l4.949-4.378c.141-.125.318-.186.494-.185zm8.966 6.953a.74.74 0 0 1 .149.581c-.068.401-.449.671-.85.602l-6.514-1.11c-.401-.068-.671-.449-.602-.85a.74.74 0 0 1 .85-.603l6.514 1.11a.74.74 0 0 1 .453.27zm5.448-61.86c-.053-.194-.026-.41.092-.593.221-.342.676-.44 1.018-.22l5.553 3.582a.74.74 0 0 1 .22 1.019c-.221.342-.677.44-1.018.22l-5.552-3.582c-.16-.103-.267-.257-.313-.426zm37.884 4.221c.177-.096.393-.12.598-.047.384.136.584.557.448.941l-2.209 6.227c-.136.383-.557.584-.941.448s-.584-.557-.448-.941l2.209-6.227c.063-.178.188-.317.343-.401zm-2.966-8.117l-3.413 4.376c-.251.322-.712.378-1.034.128s-.378-.712-.128-1.034l3.121-4.003 1.454.533zm-33.371 60.438c.071.211.247.357.453.399.1.02.205.017.307-.017.109-.036 10.795-3.497 22.042 1.162 5.714 2.367 10.795 3.273 14.901 3.191l.058-.678.008-.084s.233-.149.631-.434c-4.037.197-9.214-.655-15.135-3.107-11.675-4.835-22.432-1.342-22.883-1.191a.6.6 0 0 0-.382.759zm25.71-62.949c-1.405 2.182-4.311 4.654-10.191 4.227-8.111-.588-13.449-8.327-15.314-11.508l.386-.014 25.119 7.295z"/></g><path d="M147.766 216.822a5.91 5.91 0 0 0 .718.102c2.243.181 4.06-.47 5.399-1.933 3.901-4.262 2.299-13.977 2.229-14.388-.056-.327-.368-.547-.693-.492a.6.6 0 0 0-.492.694c.016.095 1.574 9.548-1.931 13.375-1.091 1.191-2.535 1.697-4.414 1.545-7.862-.633-16.667-20.596-16.755-20.798a.6.6 0 0 0-1.102.482c.36.827 8.711 19.725 17.041 21.413z" class="E"/><g class="C"><path d="M172.245 208.973c-.518 5.764.9 15.272 4.62 22.106-.088-1.475-.128-2.956-.113-4.44.001-.049-.001-.102 0-.151l.009-.452c.14-8.729.993-13.152-4.516-17.063zm-46.206 10.14c-2.882 11.119-13.417 20.042-20.624 17.258l-.265-1.873-.185-1.221a167.65 167.65 0 0 0-1.615-8.987c-2.671-12.815-.795-26.267 12.198-27.859l2.776-.318c6.507 2.772 11.034 10.196 7.715 23z"/><path d="M127.524 210.634l16.885 61.739-6.019-6.938c2.231 1.184 4.81 2.096 7.666 2.736s5.969 1.013 9.223 1.182 6.65.14 10.119-.004 7.017-.405 10.616-.712l.019-.002c5.31-.453 9.982 3.485 10.435 8.795.432 5.062-3.161 9.55-8.095 10.349-3.712.592-7.488 1.152-11.361 1.6s-7.844.784-11.956.876-8.369-.064-12.772-.703c-4.394-.638-8.953-1.784-13.408-3.706-2.852-1.23-4.882-3.57-5.805-6.297l-.214-.641-20.257-60.716a13.03 13.03 0 0 1 8.235-16.48 13.03 13.03 0 0 1 16.48 8.235c.073.215.15.471.209.687z"/></g><g class="F"><path d="M135.081 270.397a.5.5 0 0 1-.249-.935c.155-.089 3.85-2.175 7.711-2.473a.5.5 0 0 1 .077.997c-3.633.28-7.257 2.324-7.293 2.345a.5.5 0 0 1-.246.066z"/><path d="M141.215 268.168a.49.49 0 0 1-.259-.073c-2.329-1.413-5.147-1.627-5.175-1.629a.5.5 0 0 1-.463-.534c.02-.275.252-.48.534-.463.125.009 3.09.234 5.623 1.772a.5.5 0 0 1-.26.927z"/></g><path d="M156.272 235.626c7.472 1.514 10.741-6.213 10.773-6.291.126-.307-.021-.659-.327-.785a.6.6 0 0 0-.785.327c-.121.292-2.936 6.884-9.422 5.569-6.806-1.379-19.506-14.775-19.633-14.91a.6.6 0 1 0-.875.825c.531.565 13.093 13.811 20.269 15.265z" class="K"/><path d="M144.525 187s-11.991-2.258-15.372-14.359c-3.219-11.521-.742-17.498 2.606-23.722 2.522-4.688 10.518-11.022 21.734-8.749 11.324 2.294 19.787 8.106 21.039 17.416 2.341 17.422-11.715 38.676-30.007 29.414z" class="B"/><path d="M129.723 174.507c-.217 0-.428-.113-.543-.316-.217-.38-5.264-9.453-1.075-21.393 2.616-7.456 7.772-10.794 11.637-12.281 4.176-1.607 7.694-1.455 7.843-1.448.345.017.61.31.594.655a.62.62 0 0 1-.654.594h0c-.034-.002-3.442-.143-7.379 1.384-5.239 2.031-8.893 5.904-10.86 11.511-3.994 11.382.931 20.272.981 20.361.17.3.065.681-.234.852-.099.054-.205.081-.31.081z" class="G"/><path d="M167.782 174.704s3.902-3.082 4.928.999-1.869 11.333-6.411 9.13l1.483-10.129z" class="F"/><path d="M163.973 182.201c-1.936.641-3.654 2.356-4.088 4.494-.643 3.176 1.416 6.282 4.592 6.926s6.282-1.416 6.926-4.592c.482-2.378-.553-4.718-2.436-6.012-.631-.435-1.358-.752-2.156-.914l-.057-.01c-.112.4-.065.722.162.972.642.169 1.224.46 1.727.843 1.469 1.117 2.256 3.012 1.866 4.939a4.97 4.97 0 0 1-5.85 3.879 4.97 4.97 0 0 1-3.879-5.85c.395-1.95 1.836-3.333 3.655-3.771l-.462-.904z" class="G"/><path d="M155.96 192.186l-1.635 10.215s-7.648 7.806-21.617-6.198c3.75-2.794 5.181-9.267 4.743-13.452 0 0 1.103.662 2.798 2.198.332.3.756.534 1.173.819 3.693 2.512 9.35 5.779 14.538 6.418z" class="C"/><path d="M155.96 192.186l-.775 4.843c-4.19-1.866-11.599-5.859-14.935-12.079l1.173.819c3.692 2.511 9.349 5.778 14.537 6.417z" class="B"/><path d="M171.561 172.241l-.627 3.087-.638 3.003c-1.546 7.071-2.822 10.857-4.884 12.275-10.428 7.171-27.401-7.35-27.947-7.818-.028-.847-.028-1.672-.011-2.482.125-6.879 1.298-13.055 3.157-18.772.928-6.238 5.767-11.239 12.002-12.181 6.461-.972 11.32 2.766 14.359 4.421 4.589 2.503 6.386 9.452 4.589 18.467z" class="C"/><path d="M140.968 155.122s7.298-14.037 21.859-10.12 15.334 10.68 15.591 14.062-7.54-2.609-7.54-2.609-.267 6.762-2.866 4.679c-3.187-2.555-6.754-8.07-6.754-8.07s-8.672 8.523-16.913 6.224c-4.68-1.306-3.377-4.166-3.377-4.166z" class="B"/><path d="M158.855 186.01c-1.892 0-3.188-1.307-3.255-1.375a.52.52 0 0 1 .746-.725c.069.07 1.571 1.558 3.551.883a.52.52 0 0 1 .66.324.52.52 0 0 1-.324.66c-.485.165-.947.233-1.378.233z" class="F"/><path d="M154.495 177.51s7.023 2.081 10.664 2.081c0 0-1.821 5.202-7.023 3.381-4.048-1.417-3.641-5.462-3.641-5.462z" class="E"/><path d="M167.529 162.894s-1.825-.186-1.528 1.581 4.251.687 6.206 4.228c.001 0 1.889-3.712-4.678-5.809zm-8.106-1.643s1.753.539.793 2.051-4.183-1.022-7.363 1.479c0 0-.295-4.154 6.57-3.53z" class="B"/><path d="M156.258 173.922c-.169.835-2.025 1.163-4.145.733s-3.702-1.454-3.533-2.289 2.025-1.163 4.145-.733 3.702 1.455 3.533 2.289z" class="F"/><g class="E"><path d="M176.981 174.472l-5.671-.967c-.03.241-.087.476-.142.712a.54.54 0 0 1-.04.115l5.711.974c.23.039.449-.116.488-.346s-.105-.454-.346-.488zm-15.138-4.844c.002-.291-.015-.578-.051-.863-.186-1.535-.866-2.958-1.911-4.059a7.07 7.07 0 0 0-3.664-2.068l-.071-.017c-3.32-.685-6.588 1.062-7.941 4.021-.119.256-.222.518-.306.792a6.65 6.65 0 0 0-.196.737 7.12 7.12 0 0 0 .919 5.197c.315.51.695.981 1.128 1.394.938.909 2.135 1.569 3.503 1.852 2.306.477 4.582-.22 6.214-1.679 1.101-.984 1.908-2.318 2.229-3.871a7.19 7.19 0 0 0 .147-1.436zm-8.418 6.156l-.104-.024c-1.792-.401-3.239-1.537-4.09-3.025-.734-1.285-1.021-2.83-.7-4.392.067-.322.158-.634.271-.934.009-.019.016-.038.022-.057a6.31 6.31 0 0 1 5.498-4.022c.541-.033 1.095.003 1.651.119a6.24 6.24 0 0 1 3.068 1.611 6.3 6.3 0 0 1 1.825 5.833c-.702 3.399-4.04 5.596-7.441 4.891z"/><path d="M174.545 166.708a7.04 7.04 0 0 0-.595-.28 7.03 7.03 0 0 0-.745-.257l-.536-.134c-.335-.07-.672-.113-1.001-.134-.403-.027-.802-.017-1.195.025-1.089.116-2.124.481-3.033 1.048-.999.623-1.845 1.492-2.435 2.541-.155.265-.289.545-.407.834l-.016.046a6.96 6.96 0 0 0-.357 1.189c-.571 2.758.54 5.48 2.629 7.099a7.05 7.05 0 0 0 2.323 1.192l.397.103c.065.02.133.034.201.048.689.141 1.378.181 2.047.121l.321-.032c.293-.039.585-.094.869-.17a7.13 7.13 0 0 0 1.529-.591c1.826-.965 3.229-2.703 3.677-4.878.66-3.186-.927-6.325-3.673-7.77zm2.845 7.598l-.098.4c-.05.19-.111.375-.182.556-.498 1.325-1.422 2.408-2.577 3.123a6.44 6.44 0 0 1-1.358.634c-.299.096-.605.173-.918.225l-.271.037a6.25 6.25 0 0 1-2.04-.082l-.188-.041-.114-.027c-1.011-.263-1.908-.761-2.639-1.427l-.314-.303c-1.392-1.444-2.073-3.53-1.636-5.643a6.47 6.47 0 0 1 .441-1.35c.632-1.377 1.732-2.455 3.059-3.077a6.29 6.29 0 0 1 2.671-.599l.458.018a6.39 6.39 0 0 1 .812.114l.577.147a6.14 6.14 0 0 1 .76.29c.194.086.385.185.567.292 2.267 1.329 3.551 4.001 2.99 6.713zm-38.219-6.379c-.049-.01-.098-.029-.142-.058-.197-.126-.254-.387-.128-.584 2.839-4.438 9.666-.454 9.734-.413.201.119.267.379.147.58s-.378.267-.579.148c-.062-.037-6.19-3.609-8.589.142a.43.43 0 0 1-.443.185z"/><path d="M164.913 170.597a.42.42 0 0 1-.269-.184c-.908-1.402-2.852-.773-2.871-.767-.222.074-.461-.045-.535-.267s.045-.461.267-.535c.891-.297 2.84-.448 3.849 1.109.127.196.071.458-.125.585-.097.063-.211.08-.316.059z"/></g><g opacity=".8" class="F"><path d="M170.934 175.328l-.638 3.003c-1.928-.465-3.318-1.421-3.159-2.206s1.827-1.123 3.797-.797z"/></g><path d="M157.748 169.731c-.232 1.146-.94 1.97-1.582 1.84s-.973-1.164-.741-2.311.94-1.97 1.582-1.84.973 1.165.741 2.311zm11.34 2.297c-.232 1.146-.94 1.97-1.582 1.84s-.973-1.164-.74-2.311.94-1.97 1.582-1.84.972 1.165.74 2.311zm-5.854 3.077c.55.111.94.094.973.093.134-.007.26-.07.346-.173a.48.48 0 0 0 .106-.372l-.732-5.352a.481.481 0 1 0-.953.131l.652 4.765c-.478-.072-1.202-.271-1.847-.807a.482.482 0 0 0-.616.741c.71.588 1.482.855 2.071.974zm-21.098 3.79c-.081.117-2.296 3.307-4.671 3.894l-.011-2.483c.083.003 2.349.066 4.682-1.411z" class="B"/><path d="M141.65 170.509s-3.336-7.084-7.673-2.927c-3.575 3.426-.448 14.874 5.749 12.424l1.924-9.497z" class="C"/><path d="M133.439 176.617c-1.937.641-3.654 2.356-4.088 4.494-.643 3.176 1.417 6.282 4.592 6.926s6.283-1.416 6.926-4.592c.482-2.378-.553-4.718-2.436-6.012-.631-.435-1.358-.752-2.156-.914l-.058-.01c-.112.4-.065.722.163.972.642.169 1.223.46 1.727.843 1.468 1.117 2.256 3.012 1.865 4.939a4.97 4.97 0 0 1-5.85 3.879 4.97 4.97 0 0 1-3.879-5.85c.395-1.95 1.836-3.334 3.655-3.771l-.461-.904z" class="G"/><g class="B"><path d="M139.474 178.026l.052.008a.48.48 0 0 0 .523-.435c.488-5.351-3.55-8.057-3.722-8.17a.48.48 0 1 0-.527.804h0c.152.1 3.726 2.516 3.291 7.278-.022.246.146.466.383.515z"/><path d="M135.653 174.275a.48.48 0 0 0 .318-.045c.477-.249 1.887-.814 2.657-.441a.481.481 0 1 0 .419-.866c-1.344-.65-3.304.34-3.523.455a.48.48 0 0 0 .129.897zm10.3-15.778s-4.488 12.19-4.734 14.646c-.335 3.348-4.761-8.125-.306-17.929l5.04 3.283zm75.013 258.446H202.48s-4.278-20.519-5.713-32.025-2.181-38.784-2.181-38.784-14.733 4.785-45.571 2.982c-68.33-3.992-42.421-54.193-42.421-54.193 2.309 3.188 19.625 7.582 29.291 9.106 29.666 2.848 52.219 7.885 67.659 14.547 3.719 1.603 7.023 3.3 9.918 5.085 3.723 2.295 6.052 9.257 7.455 18.413 4.22 27.522.049 74.869.049 74.869z"/></g><g class="H"><path d="M204.773 407.056a.66.66 0 0 1-.648-.531c-2.666-13.2-3.561-29.629-4.281-42.83-.596-10.946-1.16-21.285-2.566-22.528-1.139-1.006-5.868-.221-11.855.773-11.909 1.977-29.906 4.965-49.753.347-10.81-2.515-18.758-7.766-23.622-15.608-8.387-13.523-4.564-30.288-4.524-30.456.084-.355.441-.576.796-.492a.66.66 0 0 1 .492.796c-.038.163-3.734 16.415 4.367 29.464 4.672 7.527 12.34 12.576 22.791 15.008 19.591 4.558 37.431 1.596 49.236-.364 7.07-1.173 11.337-1.882 12.948-.459 1.74 1.537 2.229 9.098 3.012 23.447.717 13.158 1.61 29.534 4.257 42.64.072.358-.159.707-.518.78-.044.009-.088.013-.132.013z"/><path d="M221.32 407.404l-20.571-.441a.66.66 0 0 1-.647-.676c.008-.365.307-.663.676-.647l20.557.441a.66.66 0 0 1 .647.676c-.008.36-.303.647-.662.647z"/></g><path d="M220.457 440.628h-13.048l-2.513-15.309-1.376-8.376h16.211l.257 8.376z" class="C"/><path d="M220.457 440.628h-13.048l-1.872-11.397-.641-3.912h15.092l.125 4.056z" class="G"/><path d="M220.113 429.375l-14.576-.144-.641-3.912h15.092z" class="J"/><path d="M252.657 461.236h-49.353c-.366-.666-.566-1.612-.648-2.741-.309-4.176 1.021-10.837 1.674-15.038.08-.491.148-.948.2-1.362.091-.703.148-1.287.148-1.717 0-3.427 3.034-2.841 3.034-2.841 4.994 4.899 10.648-2.445 13.951-.036a20.86 20.86 0 0 0 .437.334 53.25 53.25 0 0 1 1.283 1.048c.842.703 2.022 1.724 3.621 3.161 3.916 3.525 10.58 5.852 16.255 8.224a41.62 41.62 0 0 1 2.017.905 30.73 30.73 0 0 1 1.34.685c4.637 2.504 6.113 4.897 6.448 6.636.318 1.67-.407 2.742-.407 2.742z" class="L"/><g class="K"><path d="M246.614 451.859c-1.271 1.012-4.098 3.036-6.366 3.036a3.27 3.27 0 0 1-.298-.011c-1.601-.134-7.483-3.025-12.268-5.654-2.743-1.508-5.247-2.991-7.048-4.18-2.954-1.947-3.466-2.69-3.582-3.207-.432-1.947 2.788-3.305 5.047-4.007a53.25 53.25 0 0 1 1.283 1.048c-2.804.764-5.108 1.963-5.001 2.645.275.578 3.195 2.804 10.18 6.627 5.329 2.916 10.382 5.274 11.503 5.367 1.519.123 3.753-1.26 5.211-2.349.472.227.918.457 1.339.685zm6.042 9.377h-49.351c-.367-.667-.567-1.613-.649-2.741h50.406c.32 1.668-.406 2.741-.406 2.741z"/><path d="M208.34 461.236h-1.466c1.463-1.672 2.832-4.236 2.653-7.902-.238-4.876-3.164-8.164-5.197-9.876l.2-1.363c2.191 1.674 5.884 5.341 6.172 11.18.17 3.501-.978 6.113-2.362 7.961z"/></g><path d="M226.166 444.956c-.365 0-.697-.248-.789-.618-.108-.436.157-.877.593-.985l3.083-.765a.81.81 0 0 1 .985.593c.108.436-.157.877-.593.985l-3.083.765c-.066.017-.132.025-.196.025zm-3.064-2.567c-.365 0-.697-.248-.789-.618-.108-.436.157-.877.593-.985l3.083-.765c.435-.109.877.157.985.593s-.157.877-.593.985l-3.083.765c-.065.017-.131.025-.196.025zm6.146 4.359c-.365 0-.697-.247-.789-.618-.108-.436.157-.877.593-.985l3.083-.765a.81.81 0 0 1 .985.593c.108.436-.158.877-.593.985l-3.083.765c-.065.017-.131.025-.196.025zm3.083 1.722c-.365 0-.697-.247-.789-.618-.108-.436.157-.877.594-.985l3.083-.765a.81.81 0 0 1 .985.593c.108.436-.157.877-.593.985l-3.083.765a.79.79 0 0 1-.197.025zm3.362 1.593c-.365 0-.697-.247-.789-.617-.108-.436.157-.877.593-.985l3.083-.766c.436-.108.877.157.985.593s-.157.877-.593.985l-3.083.765c-.066.018-.131.025-.196.025zm3.645 1.359c-.365 0-.697-.248-.789-.618-.108-.436.157-.877.594-.985l3.083-.765a.81.81 0 0 1 .985.593c.108.436-.157.877-.593.985l-3.083.765a.79.79 0 0 1-.197.025z" class="E"/><path d="M289.065 294.187v4.098c0 2.359-1.425 4.269-3.184 4.269H64.419c-1.758 0-3.182-1.91-3.182-4.269v-4.098c0-2.357 1.425-4.267 3.182-4.267h221.462c1.76 0 3.184 1.91 3.184 4.267z" class="M"/><path d="M61.236 295.485h227.829v1.875H61.236zm221.174 17.602H74.237c-.932 0-1.687-.755-1.687-1.687v-8.895h211.548v8.895a1.69 1.69 0 0 1-1.688 1.687zM86.894 365.332H273.06v7.255H86.894z" fill="#217c58"/><path d="M73.47 462.527l36.042-149.44H96.855l-36.043 149.44zm212.766 0l-36.043-149.44h12.658l36.043 149.44z" class="M"/><path d="M77.547 256.173l3.909-.599 4.513 29.465-3.909.599z" class="G"/><path d="M81.464 255.562l-3.908.598.86-2.985.446-1.544.888 1.34z" class="C"/><path d="M81.732 283.497l3.909-.599.328 2.141-3.909.599z" class="B"/><path d="M85.979 286.772l-3.388.519c-.144.022-.278-.077-.3-.22l-.221-1.446 3.908-.599.221 1.447c.022.143-.076.277-.22.299z" class="I"/><path d="M79.75 252.971l-1.334.204.446-1.544z" class="B"/><path d="M81.509 281.956l3.909-.599.235 1.535-3.909.599zm-2.759-24.493l3.343 21.82c.025.165.179.278.344.253h0c.165-.025.278-.179.253-.344l-3.343-21.82c-.025-.165-.179-.278-.344-.253h0c-.165.025-.278.179-.253.344zm1.529-.236l3.343 21.82c.025.165.179.278.344.253h0c.165-.025.278-.18.253-.344l-3.342-21.82c-.025-.165-.18-.278-.344-.253h0c-.166.025-.28.18-.254.344z" class="J"/><path d="M84.58 255.71l3.954-.013.098 29.808-3.954.013z" class="M"/><path d="M88.531 255.697l-3.955.013 1.294-2.824.67-1.462.679 1.458z" class="C"/><path d="M84.671 283.353l3.954-.013.007 2.166-3.954.013z" class="B"/><path d="M88.37 287.232l-3.428.011c-.145.001-.263-.117-.264-.262l-.005-1.463 3.954-.013.004 1.463a.26.26 0 0 1-.261.264z" class="I"/><path d="M87.219 252.882l-1.349.004.67-1.462z" class="B"/><path d="M84.665 281.8l3.954-.013.005 1.553-3.954.013zm.899-24.624l.072 22.074c0 .167.136.301.303.301h0c.167-.001.301-.136.301-.303l-.072-22.074c-.001-.167-.136-.301-.303-.301h0c-.166 0-.301.136-.301.303zm1.547-.007l.072 22.074c.001.167.136.302.303.301h0a.3.3 0 0 0 .301-.303l-.072-22.074c-.001-.167-.136-.302-.303-.301h0a.3.3 0 0 0-.301.303z" fill="#217c58"/><path d="M87.253 285.056l4.191-29.513 3.915.556-4.191 29.513z" class="L"/><path d="M95.352 256.117l-3.915-.556 1.686-2.609.874-1.35.463 1.54z" class="C"/><path d="M87.567 282.936l3.915.556-.305 2.145-3.915-.556z" class="B"/><path d="M90.656 287.301l-3.394-.482c-.144-.02-.244-.154-.224-.297l.206-1.449 3.915.556-.206 1.449c-.02.143-.153.243-.297.223z" class="I"/><path d="M94.46 253.142l-1.337-.19.874-1.35z" class="B"/><path d="M87.563 282.923l.219-1.538 3.915.556-.219 1.538zm4.641-25.77L89.1 279.008c-.023.165.091.318.257.341h0c.165.023.318-.091.341-.257l3.105-21.855c.023-.165-.091-.318-.257-.341h0c-.165-.023-.318.092-.342.257zm1.532.216l-3.105 21.855c-.023.165.091.318.257.341h0c.165.023.318-.091.342-.257l3.105-21.855c.023-.165-.091-.318-.257-.342h0c-.166-.022-.319.093-.342.258z" class="K"/><path d="M96.636 267.488l-.206 1.599-.188 1.452-.285 2.205-.184 1.435-.287 2.224-.184 1.417-.289 2.242-.181 1.397-.292 2.26-.177 1.381-.294 2.278-.177 1.363-.152 1.179H78.202l-.152-1.179-.177-1.363-.294-2.278-.177-1.381-.292-2.26-.181-1.397-.289-2.242-.184-1.417-.287-2.224-.184-1.435-.285-2.205-.188-1.452-.205-1.599z" class="I"/><path d="M96.43 269.087l-.188 1.452H75.7l-.188-1.452zm-.473 3.657l-.184 1.435H76.169l-.184-1.435zm-.471 3.659l-.184 1.417H76.64l-.184-1.417zm-.473 3.659l-.181 1.397H77.11l-.181-1.397zm-.473 3.657l-.177 1.381H77.579l-.177-1.381zm-.471 3.659l-.177 1.363H78.05l-.177-1.363z" fill="#b11722"/><path d="M287.775 210.668l-13.251 56.036-.349 1.473-.891 3.774c-.385 1.635-1.842 2.787-3.522 2.787H180.5c-2.335 0-4.062-2.181-3.524-4.452l14.491-61.284c.385-1.633 1.842-2.785 3.521-2.785h89.262c2.336.001 4.063 2.179 3.525 4.451z" class="B"/><path d="M274.524 266.704l-.349 1.473h-92.682v-1.473z" class="H"/><path d="M216.473 220.084c-.741 3.972-4.562 7.192-8.533 7.192s-6.591-3.22-5.85-7.192 4.562-7.192 8.534-7.192 6.591 3.22 5.849 7.192z" class="G"/><path d="M208.35 218.708c-.148.794-.548 1.438-.894 1.438s-.505-.644-.357-1.438.548-1.438.894-1.438.506.644.357 1.438zm3.753 0c-.148.794-.548 1.438-.894 1.438s-.505-.644-.357-1.438.548-1.438.894-1.438.505.644.357 1.438zm-3.412 4.878c-3.093 0-3.224-3.092-3.225-3.123-.005-.169.133-.335.309-.372s.322.07.327.239c.004.112.125 2.631 2.706 2.631s3.644-2.524 3.688-2.631c.069-.168.256-.275.417-.238s.237.203.169.372c-.013.031-1.298 3.122-4.391 3.122z" class="B"/><path d="M257.736 253.66c.078 3.72 6.381 8.378 6.381 8.378s7.32-4.658 8.209-8.378c.965-4.033-3.641-5.27-7.052-2.229-2.746-3.04-7.623-1.803-7.538 2.229z" class="I"/><path d="M244.403 242.874c-.425 3.857-3.897 6.984-7.754 6.984s-6.639-3.127-6.214-6.984 3.897-6.984 7.754-6.984 6.639 3.127 6.214 6.984zm-45.877-36.657l-15.427 68.522H180.5c-2.335 0-4.06-2.18-3.523-4.452l14.489-61.285a3.62 3.62 0 0 1 3.523-2.786h3.537z" class="H"/><g class="E"><path d="M224.382 274.738l-2.708 15.228h8.943l2.708-15.228z"/><path d="M208.289 287.346l1.831-2.574c.654-.919 1.712-1.465 2.839-1.465h24.521c1.297 0 2.487.721 3.088 1.87l1.235 2.361a1.66 1.66 0 0 1-1.47 2.427H209.64a1.66 1.66 0 0 1-1.351-2.619z"/><path d="M157.199 289.959h73.66l.8-2.779c.503-1.748-.809-3.491-2.628-3.491h-67.969c-1.219 0-2.291.807-2.628 1.979l-1.235 4.291z"/></g><g class="I"><path d="M253.782 187.924l-32.58-.023a2.29 2.29 0 0 1-2.286-2.289l.014-20.018a2.29 2.29 0 0 1 2.289-2.286l32.58.022a2.29 2.29 0 0 1 2.286 2.289l-.014 20.018a2.29 2.29 0 0 1-2.289 2.287z"/><path d="M251.842 184.229l-2.973 11.219-5.192-10.545z"/></g><path d="M245.729 173.798c-.665 4.204-8.51 9.464-8.51 9.464s-7.552-5.27-7.981-9.475c-.466-4.558 4.931-5.953 8.316-2.514 3.576-3.434 8.896-2.032 8.175 2.525z" class="E"/><ellipse cx="660.353" cy="463.594" rx="55.476" ry="5.482" class="D"/><use href="#G" class="B"/><path d="M625.161 352.335h68.427a2.06 2.06 0 0 1 2.059 2.06v8.406a2.06 2.06 0 0 1-2.059 2.06h-68.427a2.06 2.06 0 0 1-2.06-2.06v-8.406a2.06 2.06 0 0 1 2.06-2.06z" class="H"/><path d="M641.318 299.042s-28.853-5.703-36.905-25.833 21.388-35.227 36.905-24.418c16.601 11.563 0 50.251 0 50.251z" class="M"/><g class="B"><path d="M658.475 351.926a.52.52 0 0 1-.516-.446c-2.764-18.697-13.905-45.597-22.765-64.872-9.607-20.901-18.674-37.582-18.764-37.748a.52.52 0 0 1 .917-.499c.091.166 9.174 16.878 18.796 37.811 8.888 19.336 20.067 46.337 22.849 65.155.042.285-.155.551-.44.593a.51.51 0 0 1-.077.006z"/><path d="M640.235 297.094a.52.52 0 0 1-.46-.275c-12.55-23.375-32.929-40.333-33.133-40.501a.52.52 0 0 1-.071-.735c.184-.222.512-.254.735-.071.206.17 20.739 17.252 33.388 40.813.136.254.041.571-.213.707-.077.042-.162.062-.246.062z"/><path d="M640.805 298.767a.52.52 0 0 1-.398-.184c-9.152-10.773-18.525-17.47-24.777-21.192-6.776-4.033-11.447-5.537-11.494-5.552a.522.522 0 1 1 .315-.995c.193.061 4.806 1.544 11.678 5.63 6.328 3.763 15.815 10.536 25.073 21.433a.52.52 0 0 1-.06.736.51.51 0 0 1-.337.124zm-2.539-6.127c-.217 0-.42-.137-.494-.354-7.035-20.646-4.447-45.738-4.42-45.989a.522.522 0 0 1 1.038.112c-.027.249-2.589 25.118 4.37 45.541.093.273-.053.57-.326.663a.54.54 0 0 1-.168.027z"/><path d="M640.036 296.727a.52.52 0 0 1-.514-.437c-2.153-13.069-.498-23.73 1.268-30.372 1.919-7.213 4.316-11.275 4.418-11.444.148-.248.468-.328.716-.181s.328.468.181.716c-.024.041-2.437 4.135-4.316 11.22-1.733 6.535-3.355 17.026-1.236 29.892a.52.52 0 0 1-.43.6c-.031.003-.059.006-.087.006z"/></g><path d="M671.755 304.301s29.14-3.986 38.369-23.604-19.265-36.431-35.395-26.56c-17.256 10.562-2.974 50.164-2.974 50.164z" class="M"/><g class="B"><path d="M660.701 350.215c-.294-.004-.525-.24-.522-.528.115-9.629 2.215-20.597 6.242-32.601 3.216-9.587 7.663-19.855 13.217-30.52 9.452-18.15 18.97-31.338 19.065-31.47.17-.233.496-.285.729-.116s.285.496.116.729c-.095.131-9.575 13.268-18.992 31.353-8.678 16.666-19.077 41.061-19.334 62.636a.52.52 0 0 1-.521.517z"/><path d="M672.982 302.421c-.093 0-.188-.025-.273-.078a.52.52 0 0 1-.171-.718c14.022-22.771 35.53-38.608 35.746-38.765a.52.52 0 0 1 .615.843c-.214.156-21.561 15.878-35.472 38.469a.52.52 0 0 1-.445.249z"/><path d="M672.314 304.058a.52.52 0 0 1-.377-.883c9.886-10.33 19.758-16.53 26.298-19.912 7.101-3.672 11.794-4.879 11.99-4.929.278-.071.563.099.634.378a.52.52 0 0 1-.378.634c-.047.012-4.799 1.237-11.802 4.862-6.461 3.345-16.213 9.475-25.987 19.688a.52.52 0 0 1-.378.162zm2.897-5.967c-.066 0-.133-.013-.197-.039-.267-.109-.395-.414-.286-.681 8.156-19.976 7.07-44.952 7.058-45.202a.52.52 0 0 1 .497-.546c.284-.016.533.209.546.497.012.252 1.11 25.453-7.134 45.647-.083.202-.278.324-.484.324z"/><path d="M673.203 302.067c-.038 0-.077-.004-.116-.013a.52.52 0 0 1-.394-.624c2.877-12.718 1.879-23.286.536-29.913-1.457-7.184-3.623-11.414-3.645-11.456a.52.52 0 0 1 .223-.704c.256-.132.571-.033.704.223.091.175 2.244 4.371 3.732 11.686 1.37 6.735 2.391 17.475-.532 30.394a.52.52 0 0 1-.508.407z"/></g><path d="M660.534 266.34s-24.69-15.982-24.715-37.663 32.912-24.803 43.323-9.017c11.139 16.89-18.608 46.68-18.608 46.68z" class="M"/><g class="B"><path d="M657.083 321.855a.56.56 0 0 1-.121-.014.52.52 0 0 1-.388-.628c4.356-18.391 3.968-47.505 2.875-68.69-1.185-22.973-3.43-41.825-3.453-42.013-.034-.286.17-.546.456-.581s.546.17.581.456c.022.188 2.272 19.076 3.459 42.083 1.096 21.253 1.482 50.474-2.902 68.985a.52.52 0 0 1-.507.402z"/><path d="M660.442 264.166a.52.52 0 0 1-.518-.463c-3.002-26.36-15.653-49.659-15.78-49.891-.139-.253-.046-.57.206-.709s.57-.046.709.206c.128.234 12.877 23.705 15.903 50.275a.52.52 0 0 1-.46.578c-.02.003-.04.004-.06.004z"/><path d="M660.353 265.932c-.218 0-.421-.138-.495-.356-4.512-13.396-10.739-23.088-15.168-28.86-4.801-6.256-8.583-9.383-8.621-9.414a.522.522 0 0 1 .661-.807c.157.128 3.893 3.214 8.763 9.554 4.485 5.839 10.789 15.644 15.354 29.194a.52.52 0 0 1-.328.661.51.51 0 0 1-.166.028zm-.089-6.633c-.009 0-.018 0-.027-.001a.52.52 0 0 1-.495-.548c1.11-21.783 12.806-44.133 12.924-44.357a.52.52 0 0 1 .705-.217c.255.135.352.451.218.705-.117.221-11.706 22.373-12.804 43.922a.52.52 0 0 1-.521.496z"/><path d="M660.395 263.752c-.037 0-.075-.004-.112-.012a.52.52 0 0 1-.398-.622c2.84-12.937 8.341-22.3 12.457-27.877 4.469-6.055 8.214-9.006 8.372-9.128a.52.52 0 0 1 .732.09c.177.227.137.555-.09.733-.038.029-3.812 3.007-8.199 8.959-4.046 5.49-9.456 14.708-12.252 27.446-.054.244-.27.411-.51.411z"/></g><path d="M690.7 319.048l-.861 2.284-.544 1.447-1.561 4.145-.546 1.447-1.604 4.257-.544 1.445-6.878 18.263h-37.575l-6.878-18.263-.544-1.445-1.604-4.257-.546-1.447-1.561-4.145-.543-1.447-.861-2.284c-.591-1.566.566-3.237 2.239-3.237h58.171c1.672 0 2.828 1.671 2.24 3.237z" class="L"/><path d="M689.839 321.332l-.544 1.447h-59.84l-.543-1.447zm-2.105 5.591l-.546 1.448h-55.626l-.546-1.448zm-2.15 5.704l-.543 1.445h-51.332l-.543-1.445z" class="K"/><path d="M649.309 364.862l-2.084 6.718-29.006 93.499h-5.67l18.396-91.59 1.733-8.627zm57.061 100.217h-5.67l-29.864-96.266-1.226-3.951h16.629l.42 2.094h.002z" class="B"/><use href="#G" y="-12.892" class="H"/><ellipse cx="237.625" cy="97.812" rx="27.115" ry="26.779" class="D"/><ellipse cx="237.625" cy="94.326" rx="27.115" ry="26.779" class="L"/><ellipse cx="237.625" cy="94.326" rx="22.044" ry="21.77" class="E"/><path d="M259.669 94.326l-.068 1.72c-.892-11.204-10.409-20.052-21.976-20.052s-21.084 8.848-21.976 20.052c-.045-.566-.068-1.141-.068-1.72 0-12.005 9.888-21.77 22.044-21.77s22.044 9.765 22.044 21.77z" class="D"/><path d="M237.626 96.591c-.17 0-.336-.078-.443-.22l-10.814-14.378a.54.54 0 0 1 .114-.762c.244-.18.59-.13.771.113l10.552 14.029 11.992-5.198c.278-.121.604.004.727.28s-.004.597-.283.718l-12.394 5.372c-.073.031-.148.046-.222.046z" class="B"/></svg>