<svg xmlns="http://www.w3.org/2000/svg" viewBox="0 0 64 64" id="Thinking">
  <path fill="#5d2784" d="M47.5 43.98c-3.58-4.16-9.49-4.56-10.17-4.6-.52-.07-.99-.18-1.4-.31h-.01c-.81-.27-1.44-1.01-1.9-2.21-.57-1.46-.67-3.13-.67-3.7v-.08l.03-.3c4.75-4.15 5.4-11.2 5.43-11.49.17-1.48.19-2.83.07-4.03l.01-.01c0-.01-.01-.01-.01-.01v-.07C37.95 6.51 27.56 6.78 27.53 6.78c-.2-.01-4.89-.15-8.25 3.12-2.18 2.12-3.27 5.15-3.24 8.99.01.75.06 1.55.14 2.36.03.31.68 7.37 5.45 11.54.01.07.01.13.01.22-.03 1.68-.16 3.75-.3 4.13v.02c-.4.78-1.17 1.35-2.31 1.71l-.01.01h-.01c-.37.12-.82.22-1.35.3-.68.04-6.59.45-10.17 4.6-2.13 2.47-2.99 5.73-2.54 9.68l.71 6.52c.04.35.27.66.6.79C6.74 60.96 14.59 64 27 64c6.19 0 13.52-.76 21.63-3 .38-.1.66-.43.71-.83l.71-6.5c.44-3.96-.42-7.22-2.55-9.69zm-13.23-3.59-2.7 4.66-2.7-2.75 3.93-3.51c.41.67.91 1.21 1.47 1.6zm-6.77 3.29 1.72 1.75-1.54 1.7c-.08.09-.14.18-.18.28-.04-.1-.1-.19-.18-.28l-1.45-1.6 1.63-1.85zm-.04-2.72-4.17-3.72c.15-.82.22-2.04.26-3.1a8.19 8.19 0 0 0 3.94 1.03c1.37 0 2.73-.36 3.97-1.04.06.78.22 1.78.53 2.78l-4.53 4.05zm.04 7.29 1.84 9.29-1.84 1.4-1.85-1.4 1.85-9.29zm-6.88-36.94c2.75-2.69 6.8-2.6 6.91-2.6.34-.01 8.01-.14 9.28 7.71-5.3.44-12.31-3.23-12.38-3.27a.988.988 0 0 0-1.01.06l-5.33 3.73c.27-2.36 1.11-4.26 2.53-5.63zm-1.63 13.7c-.72-2.17-.88-3.9-.88-3.94-.06-.59-.1-1.15-.12-1.7l6.06-4.23c1.83.89 7.91 3.64 12.96 3.21.03.84-.01 1.75-.13 2.74-.01.08-.69 7.42-5.59 10.87-.03.02-.07.04-.1.07-.13.09-.25.17-.38.25-2.07 1.29-4.56 1.29-6.64 0a4.79 4.79 0 0 1-.37-.25c-.04-.03-.08-.05-.12-.07-.17-.12-.34-.26-.51-.39-2.21-1.8-3.47-4.4-4.18-6.56zm3.4 14.02 3.71 3.31-2.37 2.68-2.98-4.76c.66-.33 1.2-.74 1.64-1.23zm25.73 14.42-.64 5.86c-21.06 5.63-36.89.9-39.96-.15l-.65-5.91c-.38-3.39.32-6.15 2.08-8.19 3.17-3.68 8.78-3.94 8.84-3.94.04 0 .07-.01.1-.01.36-.05.69-.12.99-.19l3.9 6.23c.16.26.44.43.74.46h.08c.28 0 .54-.12.73-.33l.25-.29.98 1.08-1.93 9.68c-.07.37.07.74.37.96l2.91 2.22c.18.14.38.2.59.2.21 0 .41-.06.59-.2L31 58.71c.29-.22.43-.59.36-.96l-1.92-9.68 1.14-1.26.49.5c.19.19.44.29.7.29h.12c.3-.04.56-.22.71-.48l3.49-6c.32.07.66.14 1.01.19.04 0 .07.01.1.01.06 0 5.68.26 8.84 3.94 1.76 2.04 2.46 4.8 2.08 8.19z" class="color2a2f63 svgShape"></path>
  <path fill="#edeced" d="m29.34 57.54-1.84 1.4-1.85-1.4 1.85-9.29zM26.1 42.34l-2.37 2.68-2.98-4.76c.66-.33 1.2-.74 1.64-1.23l3.71 3.31zm3.12 3.09-1.54 1.7c-.08.09-.14.18-.18.28-.04-.1-.1-.19-.18-.28l-1.45-1.6 1.63-1.85 1.72 1.75zm5.05-5.04-2.7 4.66-2.7-2.75 3.93-3.51c.41.67.91 1.21 1.47 1.6z" class="coloredeced svgShape"></path>
  <path fill="#dbaaff" d="m31.99 36.91-4.53 4.05-4.17-3.72c.15-.82.22-2.04.26-3.1a8.19 8.19 0 0 0 3.94 1.03c1.37 0 2.73-.36 3.97-1.04.06.78.22 1.78.53 2.78z" class="colorffe4aa svgShape"></path>
  <path fill="#9153be" d="m48.12 53.45-.64 5.86c-21.06 5.63-36.89.9-39.96-.15l-.65-5.91c-.38-3.39.32-6.15 2.08-8.19 3.17-3.68 8.78-3.94 8.84-3.94.04 0 .07-.01.1-.01.36-.05.69-.12.99-.19l3.9 6.23c.16.26.44.43.74.46h.08c.28 0 .54-.12.73-.33l.25-.29.98 1.08-1.93 9.68c-.07.37.07.74.37.96l2.91 2.22c.18.14.38.2.59.2.21 0 .41-.06.59-.2L31 58.71c.29-.22.43-.59.36-.96l-1.92-9.68 1.14-1.26.49.5c.19.19.44.29.7.29h.12c.3-.04.56-.22.71-.48l3.49-6c.32.07.66.14 1.01.19.04 0 .07.01.1.01.06 0 5.68.26 8.84 3.94 1.76 2.04 2.46 4.8 2.08 8.19z" class="color53be9e svgShape"></path>
  <path fill="#a64ee5" d="M36.81 16.42c-5.3.44-12.31-3.23-12.38-3.27a.988.988 0 0 0-1.01.06l-5.33 3.73c.27-2.36 1.11-4.26 2.53-5.63 2.75-2.69 6.8-2.6 6.91-2.6.34-.01 8.01-.14 9.28 7.71z" class="color4ebce5 svgShape"></path>
  <path fill="#dbaaff" d="M37.01 18.35c.03.84-.01 1.75-.13 2.74-.01.08-.69 7.42-5.59 10.87-.03.02-.07.04-.1.07-.13.09-.25.17-.38.25-2.07 1.29-4.56 1.29-6.64 0a4.79 4.79 0 0 1-.37-.25c-.04-.03-.08-.05-.12-.07-.17-.12-.34-.26-.51-.39-2.21-1.8-3.47-4.4-4.18-6.56-.72-2.17-.88-3.9-.88-3.94-.06-.59-.1-1.15-.12-1.7l6.06-4.23c1.83.89 7.91 3.64 12.96 3.21z" class="colorffe4aa svgShape"></path>
  <path fill="#5d2784" d="M59.09 8.63C58.42 3.71 54.17 0 49.19 0c-4.97 0-9.23 3.71-9.9 8.63-.12.93-.09 1.92.09 2.96.28 1.52.92 3.62 2.46 5.02.86.78 1.47 1.56 1.85 2.4.46.99.55 1.6.55 1.94v5.04c0 .16.04.32.12.46l1.5 2.79c.17.31.5.5.86.5h4.95c.35 0 .68-.19.85-.5l1.5-2.79c.08-.14.12-.3.12-.46v-5.04c0-.36.11-1.02.63-2.11.36-.75.93-1.48 1.76-2.23 1.55-1.39 2.2-3.5 2.47-5.02.19-1.04.22-2.03.09-2.96zM52.2 25.74l-1.11 2.07h-3.8l-1.11-2.07v-2.88h6.02v2.88zm4.89-14.49c-.22 1.22-.72 2.9-1.85 3.92-1.03.93-1.75 1.85-2.22 2.84-.54 1.12-.81 2.1-.82 2.91h-6.02c-.01-.76-.25-1.68-.73-2.72-.49-1.08-1.25-2.07-2.31-3.03-1.13-1.03-1.63-2.7-1.85-3.92-.15-.84-.18-1.63-.08-2.36.54-3.96 3.97-6.95 7.98-6.95s7.44 2.99 7.98 6.95c.1.73.07 1.52-.08 2.36z" class="color2a2f63 svgShape"></path>
  <path fill="#b561f1" d="M52.2 22.86v2.88l-1.11 2.07h-3.8l-1.11-2.07v-2.88z" class="colorf16e61 svgShape"></path>
  <path fill="#c87cff" d="M57.09 11.25c-.22 1.22-.72 2.9-1.85 3.92-1.03.93-1.75 1.85-2.22 2.84-.54 1.12-.81 2.1-.82 2.91h-6.02c-.01-.76-.25-1.68-.73-2.72-.49-1.08-1.25-2.07-2.31-3.03-1.13-1.03-1.63-2.7-1.85-3.92-.15-.84-.18-1.63-.08-2.36.54-3.96 3.97-6.95 7.98-6.95s7.44 2.99 7.98 6.95c.1.73.07 1.52-.08 2.36z" class="colorffdb7c svgShape"></path>
</svg>