<?xml version="1.0" encoding="UTF-8"?>
<svg version="1.1" xmlns="http://www.w3.org/2000/svg" width="583" height="428">
<path d="M0 0 C2.58939682 0.82717188 5.18111187 1.64690193 7.7734375 2.46484375 C8.42351776 2.67045425 9.07359802 2.87606476 9.74337769 3.08790588 C15.99896886 5.05505235 22.30151674 6.82867352 28.625 8.5625 C36.55690535 10.74278124 44.41255776 13.0661509 52.23828125 15.59960938 C60.02592165 18.09564797 67.90007684 20.26963962 75.78710938 22.42773438 C81.0303836 23.86938157 86.20337267 25.40643636 91.34960938 27.16235352 C95.09211134 28.4026309 98.89084217 29.43987954 102.6875 30.5 C111.5716977 33.00685513 120.4140124 35.64126243 129.25 38.3125 C138.47333711 41.09914067 147.71241189 43.80932636 157 46.375 C166.61769261 49.0345093 176.19085317 51.82610179 185.75 54.6875 C186.40460205 54.88263184 187.0592041 55.07776367 187.73364258 55.27880859 C189.59926781 55.83554982 191.46371974 56.39621815 193.328125 56.95703125 C194.3996582 57.27905518 195.47119141 57.6010791 196.57519531 57.93286133 C199.27500028 58.80252304 201.88235019 59.78532014 204.5 60.875 C204.5 61.865 204.5 62.855 204.5 63.875 C183.2532461 70.50923684 161.91078338 76.80773334 140.55688477 83.08624268 C135.2194625 84.65600845 129.88275129 86.2281899 124.5459137 87.79994202 C116.53113703 90.16009339 108.51549231 92.51727415 100.5 94.875 C100.17 116.655 99.84 138.435 99.5 160.875 C91.63322945 160.875 91.63322945 160.875 88.171875 159.80859375 C87.38627197 159.57398438 86.60066895 159.339375 85.79125977 159.09765625 C84.53333618 158.70900391 84.53333618 158.70900391 83.25 158.3125 C74.89450928 155.82639601 66.50798984 153.53569729 58.0625 151.375 C50.00451159 149.30632327 41.95854635 147.2077535 33.9375 145 C24.97952662 142.5399811 16.01063136 140.12231994 7.03347778 137.7333374 C5.5306359 137.33296787 4.02808406 136.93150779 2.52584839 136.52886963 C-0.94867361 135.59806273 -4.425111 134.68192359 -7.91357422 133.8046875 C-9.98924004 133.26662518 -12.05698089 132.68853477 -14.09033203 132.0078125 C-22.74805194 129.42330765 -31.50042509 132.99833203 -39.875 135.375 C-41.69928906 135.87533192 -43.5241757 136.37348931 -45.34960938 136.86962891 C-49.28785646 137.94310945 -53.22253271 139.02859476 -57.15527344 140.12207031 C-63.82495588 141.97179488 -70.5088002 143.76690391 -77.1953125 145.5546875 C-79.51384428 146.17509418 -81.83236644 146.79553677 -84.15087891 147.41601562 C-85.85839325 147.872948 -85.85839325 147.872948 -87.60040283 148.33911133 C-93.01649816 149.79030088 -98.43047173 151.24927957 -103.84375 152.7109375 C-105.34719467 153.1155722 -105.34719467 153.1155722 -106.88101196 153.52838135 C-111.5363419 154.78513557 -116.18343241 156.06241192 -120.81640625 157.39941406 C-121.63838501 157.63487946 -122.46036377 157.87034485 -123.30725098 158.11294556 C-124.81374608 158.54656296 -126.31842418 158.98657385 -127.82067871 159.43466187 C-131.81308549 160.58158792 -135.34537774 161.1865178 -139.5 160.875 C-141.1586352 159.2163648 -140.65277374 157.24184088 -140.67700195 154.9597168 C-140.69625481 153.38754646 -140.69625481 153.38754646 -140.71589661 151.78361511 C-140.72328354 150.64201431 -140.73067047 149.50041351 -140.73828125 148.32421875 C-140.75038887 146.57598564 -140.75038887 146.57598564 -140.76274109 144.79243469 C-140.7766019 142.32005307 -140.78731507 139.84765215 -140.79516602 137.37524414 C-140.81237958 133.58898739 -140.85624951 129.80360323 -140.90039062 126.01757812 C-140.9105168 123.61979811 -140.91903314 121.22201065 -140.92578125 118.82421875 C-140.94328934 117.68869064 -140.96079742 116.55316254 -140.97883606 115.38322449 C-140.97591049 114.32565445 -140.97298492 113.26808441 -140.9699707 112.1784668 C-140.97583694 111.24882614 -140.98170319 110.31918549 -140.98774719 109.3613739 C-140.34962994 106.10846314 -139.02929212 104.94759725 -136.5 102.875 C-133.97436523 101.66503906 -133.97436523 101.66503906 -131.05859375 100.640625 C-129.93727051 100.23884033 -128.81594727 99.83705566 -127.66064453 99.4230957 C-125.81768799 98.78053833 -125.81768799 98.78053833 -123.9375 98.125 C-121.96183642 97.42157699 -119.98776958 96.71378819 -118.01373291 96.0058136 C-116.577128 95.49080019 -115.14005997 94.97707714 -113.70257568 94.46452332 C-104.45751844 91.16223231 -95.26478661 87.718753 -86.06765747 84.2857666 C-83.13596339 83.19159178 -80.20370156 82.09895268 -77.27124023 81.00683594 C-72.68049387 79.29711607 -68.09013081 77.58637174 -63.5 75.875 C-71.20856493 77.36622572 -71.20856493 77.36622572 -78.828125 79.25 C-79.77381348 79.50869873 -80.71950195 79.76739746 -81.69384766 80.03393555 C-82.70237793 80.31148682 -83.7109082 80.58903809 -84.75 80.875 C-85.83974121 81.16608643 -86.92948242 81.45717285 -88.05224609 81.75708008 C-94.25962411 83.41844394 -100.43896325 85.14047511 -106.59936523 86.96725464 C-109.93863695 87.95022509 -113.28683072 88.90041661 -116.63659668 89.84692383 C-118.2736601 90.31768496 -119.90679594 90.80236426 -121.53527832 91.30200195 C-132.39387855 94.6245643 -140.31619821 95.336623 -151.27539062 91.61196899 C-154.59052109 90.51373198 -157.95092683 89.58868259 -161.31144714 88.6403656 C-166.19743823 87.25504664 -171.06585785 85.80979838 -175.9375 84.375 C-178.0372831 83.75854916 -180.13713771 83.14234186 -182.23706055 82.52636719 C-185.45620708 81.58199712 -188.6752645 80.63733266 -191.89393616 79.69134521 C-199.14025052 77.5625434 -206.39257431 75.45537257 -213.6484375 73.359375 C-216.46969819 72.54217587 -219.29080944 71.72446341 -222.11184692 70.90649414 C-223.90470708 70.38769011 -225.69805984 69.87058524 -227.49191284 69.35522461 C-229.97125899 68.64256056 -232.44869047 67.92358236 -234.92578125 67.203125 C-236.01921341 66.89154449 -236.01921341 66.89154449 -237.13473511 66.57366943 C-240.329222 65.63837557 -242.7039864 64.73900907 -245.5 62.875 C-245.5 62.215 -245.5 61.555 -245.5 60.875 C-243.96085937 60.41673828 -243.96085937 60.41673828 -242.390625 59.94921875 C-240.84366801 59.48725363 -239.29680287 59.0249809 -237.75 58.5625 C-236.88745605 58.3046875 -236.02491211 58.046875 -235.13623047 57.78125 C-229.05951558 55.95875095 -222.99225382 54.1071658 -216.9296875 52.23828125 C-202.23018266 47.71060184 -187.54389275 43.23549918 -172.6796875 39.2734375 C-159.71397224 35.80685705 -146.71850514 32.1815539 -134.0625 27.69921875 C-131.33165417 26.82085218 -128.57134912 26.15282114 -125.78613281 25.47143555 C-121.26729031 24.29250216 -116.82951227 22.83651002 -112.375 21.4375 C-101.06113415 17.91724526 -89.69909393 14.58801481 -78.3125 11.3125 C-67.68687015 8.25531408 -57.07108992 5.17968506 -46.5 1.9375 C-45.59596436 1.66220459 -44.69192871 1.38690918 -43.76049805 1.10327148 C-39.93797099 -0.06218161 -36.12278457 -1.24330623 -32.3203125 -2.47265625 C-31.10085938 -2.85292969 -29.88140625 -3.23320312 -28.625 -3.625 C-27.63757813 -3.9446875 -26.65015625 -4.264375 -25.6328125 -4.59375 C-16.73025695 -6.10341029 -8.37521154 -2.72353271 0 0 Z " fill="#78286E" transform="translate(312.5,27.125)"/>
<path d="M0 0 C1.4258139 0.40069199 1.4258139 0.40069199 2.88043213 0.80947876 C5.96429083 1.67744269 9.04459237 2.55737501 12.125 3.4375 C16.36847296 4.63751658 20.61370718 5.83121219 24.859375 7.0234375 C25.90929626 7.31898529 26.95921753 7.61453308 28.04095459 7.91903687 C34.34658028 9.68612497 40.66423202 11.38188063 47.015625 12.9765625 C47.74575806 13.16031433 48.47589111 13.34406616 49.22814941 13.53338623 C52.55618262 14.36725649 55.88688455 15.1856641 59.22265625 15.98828125 C60.37121094 16.27316406 61.51976562 16.55804688 62.703125 16.8515625 C64.17894043 17.20661865 64.17894043 17.20661865 65.68457031 17.56884766 C68.29090351 18.49655209 69.49342408 19.21998247 71.125 21.4375 C71.53950024 24.12007547 71.8128913 26.67751621 72 29.375 C73.9105336 49.61337668 86.31425687 66.14420782 101.60766602 78.82202148 C103.85932471 80.65641356 106.11019843 82.42742233 108.51171875 84.0625 C109.04410156 84.51625 109.57648438 84.97 110.125 85.4375 C110.125 86.4275 110.125 87.4175 110.125 88.4375 C109.48175781 88.63794922 108.83851563 88.83839844 108.17578125 89.04492188 C84.00271473 96.64857547 62.30805461 106.54807148 43.125 123.4375 C42.27421875 124.17871094 41.4234375 124.91992188 40.546875 125.68359375 C38.04016145 127.90195835 35.57417825 130.15585511 33.125 132.4375 C32.37476563 133.13359375 31.62453125 133.8296875 30.8515625 134.546875 C15.84684288 148.97246509 1.736559 169.60282301 -4.875 189.4375 C-5.865 189.4375 -6.855 189.4375 -7.875 189.4375 C-8.02876569 174.46069015 -8.17680254 159.48383191 -8.3179636 144.50689793 C-8.38363724 137.55331529 -8.45120658 130.59976061 -8.52319336 123.64624023 C-8.59259452 116.9419676 -8.65677282 110.23766395 -8.71769524 103.53330803 C-8.74186355 100.96910837 -8.76781392 98.4049249 -8.79553413 95.84076118 C-8.83391345 92.26308858 -8.86608745 88.68541204 -8.89672852 85.10766602 C-8.90967453 84.03592636 -8.92262054 82.96418671 -8.93595886 81.85997009 C-8.9465181 80.40646652 -8.9465181 80.40646652 -8.95729065 78.92359924 C-8.96973485 77.65290761 -8.96973485 77.65290761 -8.98243046 76.35654545 C-8.875 74.4375 -8.875 74.4375 -7.875 73.4375 C-5.87541636 73.39669217 -3.87454746 73.39495644 -1.875 73.4375 C-2.205 72.65375 -2.535 71.87 -2.875 71.0625 C-4.83931068 63.94187377 -4.28205188 57.35777416 -1.875 50.4375 C-2.49246094 50.59347656 -3.10992187 50.74945313 -3.74609375 50.91015625 C-11.2747875 52.6404953 -17.44165265 52.38750368 -24.875 50.4375 C-24.71257812 50.9428125 -24.55015625 51.448125 -24.3828125 51.96875 C-23.69399309 55.31747208 -23.74327444 58.52091354 -23.75 61.9375 C-23.74613281 63.90203125 -23.74613281 63.90203125 -23.7421875 65.90625 C-23.84575245 68.65985924 -24.04041986 70.84102847 -24.875 73.4375 C-22.895 73.4375 -20.915 73.4375 -18.875 73.4375 C-18.875 112.0475 -18.875 150.6575 -18.875 190.4375 C-19.865 190.4375 -20.855 190.4375 -21.875 190.4375 C-22.3596875 189.44492187 -22.844375 188.45234375 -23.34375 187.4296875 C-31.89095389 170.04649371 -41.03412804 153.24252744 -54.4765625 139.109375 C-55.875 137.4375 -55.875 137.4375 -55.875 135.4375 C-56.7103125 135.0971875 -56.7103125 135.0971875 -57.5625 134.75 C-60.53659588 133.06199964 -62.59508865 130.97073483 -64.875 128.4375 C-64.875 127.7775 -64.875 127.1175 -64.875 126.4375 C-65.39191406 126.22351563 -65.90882813 126.00953125 -66.44140625 125.7890625 C-69.90363492 123.86621961 -72.77174864 121.33547876 -75.8125 118.8125 C-93.89533575 104.16570827 -114.55791067 94.71179026 -136.875 88.4375 C-136.875 87.1175 -136.875 85.7975 -136.875 84.4375 C-134.6015625 82.4296875 -134.6015625 82.4296875 -131.5 80.3125 C-116.73172448 69.75811159 -106.95722382 56.50365545 -100.875 39.4375 C-100.4625 38.2825 -100.05 37.1275 -99.625 35.9375 C-98.70655248 31.65141159 -98.63159597 27.48690571 -98.609375 23.109375 C-97.875 20.4375 -97.875 20.4375 -95.36743164 18.91943359 C-91.38318981 17.22881158 -87.45109109 16.1064352 -83.26171875 15.0546875 C-82.00906723 14.73098427 -82.00906723 14.73098427 -80.73110962 14.40074158 C-78.00976951 13.6985529 -75.28620576 13.0054501 -72.5625 12.3125 C-68.76736886 11.33796153 -64.97342213 10.35886546 -61.1796875 9.37890625 C-60.22788101 9.13361679 -59.27607452 8.88832733 -58.29542542 8.63560486 C-52.18249512 7.05423925 -46.08906853 5.41377887 -40.0078125 3.71484375 C-39.2495668 3.50373962 -38.49132111 3.2926355 -37.71009827 3.07513428 C-34.84154089 2.27536045 -31.97339203 1.4747451 -29.11019897 0.65594482 C-27.17588563 0.10286551 -25.23839085 -0.43905033 -23.30078125 -0.98046875 C-22.22223877 -1.28750732 -21.14369629 -1.5945459 -20.0324707 -1.91088867 C-12.79105863 -3.40530828 -6.93482423 -2.00976892 0 0 Z " fill="#A02D68" transform="translate(305.875,171.5625)"/>
<path d="M0 0 C3 1 3 1 4.02734375 2.9765625 C12.16067462 26.64350812 18.48156406 53.51356787 7.3125 77.3125 C-1.48094791 93.3870092 -14.81042371 102.46646401 -32.16113281 107.64501953 C-44.62346425 110.93145245 -57.49004529 111.81155598 -70.28320312 112.93334961 C-110.49731275 116.46592136 -150.35461612 127.36896669 -182.875 152.125 C-183.41084717 152.53282715 -183.94669434 152.9406543 -184.4987793 153.36083984 C-187.93543364 156.0322953 -190.98622428 158.87501484 -194 162 C-194.99 161.67 -195.98 161.34 -197 161 C-194.28152228 155.87298977 -191.31692424 151.80606178 -187.3125 147.625 C-186.51477173 146.78038208 -186.51477173 146.78038208 -185.70092773 145.91870117 C-184.63165954 144.7908782 -183.55889813 143.66635529 -182.48242188 142.54541016 C-181.2020054 141.21058863 -179.93558781 139.86236482 -178.671875 138.51171875 C-169.12092259 128.55396652 -157.915663 120.85843394 -146 114 C-145.43087891 113.66758301 -144.86175781 113.33516602 -144.27539062 112.99267578 C-125.71767095 102.23599532 -105.42731689 96.54825433 -84.54418945 92.23168945 C-66.342803 88.44893079 -49.26710099 83.10060676 -33 74 C-32.00742187 73.45859375 -31.01484375 72.9171875 -29.9921875 72.359375 C-15.27997663 63.72485808 -6.11695648 51.73696288 -1.0625 35.4375 C1.12213935 25.5195054 1.00607592 13.95479512 -0.578125 3.92578125 C-0.78695312 2.47751953 -0.78695312 2.47751953 -1 1 C-0.67 0.67 -0.34 0.34 0 0 Z " fill="#A92E65" transform="translate(523,174)"/>
<path d="M0 0 C0.66 0.33 1.32 0.66 2 1 C1.9278125 1.72703125 1.855625 2.4540625 1.78125 3.203125 C0.01535744 22.33362776 0.76359739 41.49465344 13.36328125 57.109375 C13.90339844 57.73328125 14.44351563 58.3571875 15 59 C15.82564453 59.96679688 15.82564453 59.96679688 16.66796875 60.953125 C36.74155712 82.69594567 69.4314836 89.29377024 97.10888672 95.109375 C124.29472742 100.86619858 148.55449172 112.50909693 170.34521484 129.69775391 C171.86696975 130.89531081 173.41105431 132.06434876 174.95703125 133.23046875 C175.96830078 134.10638672 175.96830078 134.10638672 177 135 C177 135.66 177 136.32 177 137 C177.57234375 137.2371875 178.1446875 137.474375 178.734375 137.71875 C183.3832658 140.3477779 186.5695111 144.98286398 190 149 C190.79148438 149.91652344 191.58296875 150.83304688 192.3984375 151.77734375 C193.13320312 152.65519531 193.86796875 153.53304687 194.625 154.4375 C195.29789063 155.24058594 195.97078125 156.04367187 196.6640625 156.87109375 C197.10492188 157.57363281 197.54578125 158.27617187 198 159 C197.67 159.99 197.34 160.98 197 162 C193.69884945 160.29940729 191.28117144 158.35437527 188.75 155.6875 C184.90453747 151.73406552 180.67667114 148.88807671 176 146 C175.26265625 145.52949219 174.5253125 145.05898438 173.765625 144.57421875 C153.29626196 131.8323837 131.27355188 123.90449519 108 118 C106.93749023 117.72929687 106.93749023 117.72929687 105.85351562 117.453125 C91.01636516 113.79508153 75.37866893 112.75791911 60.1875 111.5078125 C36.99082605 109.59414454 15.89872043 105.11485499 0.015625 86.69921875 C-11.26609931 71.97030091 -12.3096391 53.81598259 -11 36 C-7.03060306 7.03060306 -7.03060306 7.03060306 0 0 Z " fill="#A92E65" transform="translate(60,174)"/>
<path d="M0 0 C0.99 0.66 1.98 1.32 3 2 C1.948125 2.721875 0.89625 3.44375 -0.1875 4.1875 C-2.53468492 5.85734098 -4.44749049 7.44749049 -6.5 9.5 C-9.47300318 12.47300318 -12.49088277 14.68265844 -16 17 C-16.66 17 -17.32 17 -18 17 C-18.268125 17.5775 -18.53625 18.155 -18.8125 18.75 C-20.01719859 21.0325868 -21.40798115 22.9737942 -23 25 C-21.35 24.01 -19.7 23.02 -18 22 C-17.34 22.66 -16.68 23.32 -16 24 C-16.95261719 24.73605469 -17.90523438 25.47210938 -18.88671875 26.23046875 C-20.15378607 27.21596555 -21.4207053 28.20165278 -22.6875 29.1875 C-23.31333984 29.67025391 -23.93917969 30.15300781 -24.58398438 30.65039062 C-28.31892137 33.56403257 -31.72579173 36.57554125 -35 40 C-35.99 39.67 -36.98 39.34 -38 39 C-35.28152228 33.87298977 -32.31692424 29.80606178 -28.3125 25.625 C-27.78068115 25.06192139 -27.2488623 24.49884277 -26.70092773 23.91870117 C-25.63165954 22.7908782 -24.55889813 21.66635529 -23.48242188 20.54541016 C-22.2020054 19.21058863 -20.93558781 17.86236482 -19.671875 16.51171875 C-13.67592972 10.26039061 -6.94244717 5.13977155 0 0 Z " fill="#9D315B" transform="translate(364,296)"/>
<path d="M0 0 C0.68384766 0.19078125 1.36769531 0.3815625 2.07226562 0.578125 C3.73794526 1.04404937 5.40056675 1.52088411 7.0625 2 C5.0625 3 3.0625 4 1.0625 5 C0.0725 4.67 -0.9175 4.34 -1.9375 4 C-1.9375 3.34 -1.9375 2.68 -1.9375 2 C-3.97886395 1.94548286 -6.02065856 1.90697515 -8.0625 1.875 C-9.19945312 1.85179687 -10.33640625 1.82859375 -11.5078125 1.8046875 C-15.02363957 2.00490544 -17.63133649 2.84658477 -20.9375 4 C-23.8433981 4.33780586 -26.72411052 4.49860246 -29.64453125 4.65625 C-30.40121094 4.7696875 -31.15789062 4.883125 -31.9375 5 C-32.2675 5.66 -32.5975 6.32 -32.9375 7 C-34.5625 7.5 -34.5625 7.5 -36.9375 8 C-38.05125 8.33 -39.165 8.66 -40.3125 9 C-43.53899159 9.89006665 -46.63805622 10.472089 -49.9375 11 C-52.22559079 11.51602048 -54.50845768 12.04951088 -56.7890625 12.59765625 C-58.9375 13 -58.9375 13 -62.9375 13 C-62.9375 12.34 -62.9375 11.68 -62.9375 11 C-57.38770399 9.46883727 -51.83756344 7.93893183 -46.28710938 6.41015625 C-44.40159903 5.89063935 -42.51618088 5.37078773 -40.63085938 4.85058594 C-37.91040219 4.10001583 -35.18960832 3.35067698 -32.46875 2.6015625 C-31.63508911 2.3712735 -30.80142822 2.1409845 -29.94250488 1.90371704 C-19.35475499 -1.00811405 -10.80820654 -3.13957717 0 0 Z " fill="#7E295D" transform="translate(303.9375,171)"/>
<path d="M0 0 C0.66 0.33 1.32 0.66 2 1 C2 22.45 2 43.9 2 66 C0.35 66 -1.3 66 -3 66 C-2.855625 65.33097656 -2.71125 64.66195312 -2.5625 63.97265625 C-1.41086252 58.01453179 -0.89460113 52.3525591 -0.96875 46.28125 C-1.04054882 36.65867938 -0.78306769 27.05515224 -0.5 17.4375 C-0.45160383 15.73242808 -0.40342578 14.02734995 -0.35546875 12.32226562 C-0.23947964 8.21476825 -0.1205879 4.10736482 0 0 Z " fill="#6F2159" transform="translate(410,122)"/>
<path d="M0 0 C2.64 0 5.28 0 8 0 C8 21.78 8 43.56 8 66 C7.67 66 7.34 66 7 66 C6.97494385 65.14768799 6.9498877 64.29537598 6.92407227 63.41723633 C6.82864431 60.23955034 6.72942876 57.06201106 6.62768555 53.88452148 C6.5845116 52.51217224 6.54282499 51.13977533 6.50268555 49.76733398 C6.44455608 47.78877932 6.3805429 45.8104003 6.31640625 43.83203125 C6.27974854 42.64327393 6.24309082 41.4545166 6.20532227 40.22973633 C6.08228386 37.105934 6.08228386 37.105934 5.48632812 34.51367188 C4.86266549 31.29016257 4.88837572 28.23170484 4.90234375 24.94921875 C4.9037587 24.29041214 4.90517365 23.63160553 4.90663147 22.95283508 C4.912195 20.86434238 4.92474053 18.77595989 4.9375 16.6875 C4.94251972 15.26497551 4.9470818 13.84244934 4.95117188 12.41992188 C4.96215243 8.94657923 4.97939165 5.47330039 5 2 C4.34 2 3.68 2 3 2 C2.67 2.99 2.34 3.98 2 5 C0.68 4.67 -0.64 4.34 -2 4 C-1.34 2.68 -0.68 1.36 0 0 Z " fill="#7D1842" transform="translate(279,245)"/>
<path d="M0 0 C0.33 0 0.66 0 1 0 C1 2.97 1 5.94 1 9 C1.66 9 2.32 9 3 9 C3.28875 9.969375 3.5775 10.93875 3.875 11.9375 C4.64214682 15.10664203 4.64214682 15.10664203 7 16 C6.67 17.32 6.34 18.64 6 20 C2 20 2 20 -2 19 C-2 37.81 -2 56.62 -2 76 C-2.33 76 -2.66 76 -3 76 C-3.28408652 68.32483927 -3.56266032 60.64949551 -3.83411503 52.97387791 C-3.9603251 49.41013226 -4.08846349 45.84647736 -4.22094727 42.28295898 C-4.37302623 38.19013128 -4.51682824 34.09704982 -4.66015625 30.00390625 C-4.70906509 28.71851456 -4.75797394 27.43312286 -4.80836487 26.10877991 C-4.8484819 24.92763107 -4.88859894 23.74648224 -4.92993164 22.52954102 C-4.96768204 21.48363297 -5.00543243 20.43772491 -5.04432678 19.36012268 C-5 17 -5 17 -4 16 C-2.00041636 15.95919217 0.00045254 15.95745644 2 16 C1.67 15.21625 1.34 14.4325 1 13.625 C-0.27410171 9.00638131 -0.16923936 4.75750644 0 0 Z " fill="#973061" transform="translate(302,229)"/>
<path d="M0 0 C2.5761421 2.29483923 3.83870631 4.49431329 5.25 7.625 C11.90274147 21.06704947 21.75372147 27.58855925 35 34 C35 34.66 35 35.32 35 36 C20.64289315 31.99883907 9.5481734 23.35134019 2.1875 10.41015625 C0.65534478 7.30048595 -0.26473673 4.38221106 -1 1 C-0.67 0.67 -0.34 0.34 0 0 Z " fill="#8C2B53" transform="translate(53,243)"/>
<path d="M0 0 C0.99 0.33 1.98 0.66 3 1 C5.60872513 6.28041949 7.36698143 12.14457821 8 18 C7.01 18 6.02 18 5 18 C4.67 17.67 4.34 17.34 4 17 C4.03480469 17.65226562 4.06960938 18.30453125 4.10546875 18.9765625 C4.27610432 24.48565372 4.0363889 28.19238424 1 33 C0.12757535 30.00361632 -0.10688858 27.37724241 -0.0625 24.26171875 C-0.05476562 23.35873047 -0.04703125 22.45574219 -0.0390625 21.52539062 C-0.01318211 19.64518006 0.01285754 17.76497169 0.0390625 15.88476562 C0.07368201 11.825628 0.07719582 7.91005773 -0.5625 3.89453125 C-0.706875 2.93933594 -0.85125 1.98414063 -1 1 C-0.67 0.67 -0.34 0.34 0 0 Z " fill="#78285C" transform="translate(523,174)"/>
<path d="M0 0 C0.66 0 1.32 0 2 0 C2 11.55 2 23.1 2 35 C1.01 35 0.02 35 -1 35 C-4 28.375 -4 28.375 -4 25 C-3.34 25 -2.68 25 -2 25 C-0.74817913 22.49635825 -0.90163758 20.82436345 -0.9375 18.02734375 C-0.94523437 17.04572266 -0.95296875 16.06410156 -0.9609375 15.05273438 C-0.97382813 14.02470703 -0.98671875 12.99667969 -1 11.9375 C-1.02539038 9.90499973 -1.04646374 7.87243934 -1.0625 5.83984375 C-1.07410156 4.93613037 -1.08570313 4.03241699 -1.09765625 3.10131836 C-1 1 -1 1 0 0 Z " fill="#AB2F61" transform="translate(285,327)"/>
<path d="M0 0 C14.44823976 3.23978635 28.71954837 7.09350349 43 11 C42.67 11.66 42.34 12.32 42 13 C34.25881165 11.92247195 26.95806834 10.18917574 19.4765625 7.94140625 C15.19138765 6.78103868 10.92564383 6.1265511 6.5234375 5.58984375 C3.67623268 4.92432064 2.12027119 3.99584213 0 2 C0 1.34 0 0.68 0 0 Z " fill="#762857" transform="translate(323,177)"/>
<path d="M0 0 C0.33 0 0.66 0 1 0 C1.20753906 0.78761719 1.41507812 1.57523438 1.62890625 2.38671875 C4.49198922 12.50933426 8.36311202 22.22463099 15.5 30.125 C16.7375 31.548125 16.7375 31.548125 18 33 C17.67 33.99 17.34 34.98 17 36 C9.64251004 29.31137277 4.66350997 21.17709248 1 12 C0.566875 11.13375 0.13375 10.2675 -0.3125 9.375 C-1.27313695 6.05643599 -0.656298 3.3471198 0 0 Z " fill="#71264E" transform="translate(377,205)"/>
<path d="M0 0 C0.80566406 0.25265625 1.61132812 0.5053125 2.44140625 0.765625 C3.10011719 1.09046875 3.75882812 1.4153125 4.4375 1.75 C4.7675 2.74 5.0975 3.73 5.4375 4.75 C2.4675 4.255 2.4675 4.255 -0.5625 3.75 C-0.40136719 4.25402344 -0.24023438 4.75804687 -0.07421875 5.27734375 C0.62257133 8.64427595 0.60820594 11.87643524 0.625 15.3125 C0.63724609 15.98474609 0.64949219 16.65699219 0.66210938 17.34960938 C0.67312975 21.04878237 0.54435378 22.58971933 -1.5625 25.75 C-2.42806626 20.30929778 -2.82051761 14.92584535 -3.0859375 9.421875 C-3.62882522 6.37814387 -4.40337097 5.80521373 -6.5625 3.75 C-6.5625 2.43 -6.5625 1.11 -6.5625 -0.25 C-3.86689815 -1.59780093 -2.819883 -0.92336458 0 0 Z " fill="#832A5A" transform="translate(281.5625,218.25)"/>
<path d="M0 0 C-6.80324533 5.95283967 -16.44799497 7.16184038 -25 9 C-25 9.66 -25 10.32 -25 11 C-27.97 11 -30.94 11 -34 11 C-34 10.34 -34 9.68 -34 9 C-26.77483545 6.12347079 -19.39982366 3.85796616 -11.9375 1.6875 C-10.99688721 1.40890137 -10.05627441 1.13030273 -9.0871582 0.84326172 C-8.20116943 0.58947754 -7.31518066 0.33569336 -6.40234375 0.07421875 C-5.60304443 -0.15692627 -4.80374512 -0.38807129 -3.98022461 -0.6262207 C-2 -1 -2 -1 0 0 Z " fill="#561E5A" transform="translate(221,44)"/>
<path d="M0 0 C-4.33669664 4.33669664 -8.82982083 5.20606806 -14.68359375 5.69140625 C-19.25350349 6.30021379 -23.69960759 7.69960759 -27 11 C-27 10.34 -27 9.68 -27 9 C-28.32 9 -29.64 9 -31 9 C-31 10.98 -31 12.96 -31 15 C-31.33 15 -31.66 15 -32 15 C-32 12.69 -32 10.38 -32 8 C-26.41467266 4.80838437 -20.51375831 3.34383557 -14.3125 1.75 C-13.26771484 1.46898437 -12.22292969 1.18796875 -11.14648438 0.8984375 C-10.14552734 0.63804687 -9.14457031 0.37765625 -8.11328125 0.109375 C-7.20360596 -0.12813477 -6.29393066 -0.36564453 -5.35668945 -0.61035156 C-3 -1 -3 -1 0 0 Z " fill="#6C234E" transform="translate(240,184)"/>
<path d="M0 0 C0.66 0.33 1.32 0.66 2 1 C1.47594437 7.69007182 0.89536075 14.3487487 0 21 C-0.66 21 -1.32 21 -2 21 C-1.98839844 20.36191406 -1.97679687 19.72382813 -1.96484375 19.06640625 C-1.95582031 18.24011719 -1.94679688 17.41382813 -1.9375 16.5625 C-1.92009766 15.32693359 -1.92009766 15.32693359 -1.90234375 14.06640625 C-1.76732652 12.00836062 -1.76732652 12.00836062 -3 11 C-3.144375 11.94875 -3.28875 12.8975 -3.4375 13.875 C-4 17 -4 17 -5 19 C-5.66 18.67 -6.32 18.34 -7 18 C-6.40666138 15.74712037 -5.79990323 13.49777215 -5.1875 11.25 C-4.85105469 9.99703125 -4.51460937 8.7440625 -4.16796875 7.453125 C-3.11736516 4.34699265 -2.14223816 2.43073441 0 0 Z " fill="#792B5E" transform="translate(60,174)"/>
<path d="M0 0 C-3.0333779 2.02225194 -5.61344489 2.99347524 -9.0625 4.125 C-10.12597656 4.47820313 -11.18945312 4.83140625 -12.28515625 5.1953125 C-15 6 -15 6 -17 6 C-17 6.66 -17 7.32 -17 8 C-18.670625 8.2165625 -18.670625 8.2165625 -20.375 8.4375 C-23.82142047 8.78372035 -23.82142047 8.78372035 -26 10 C-28.3329866 10.04022391 -30.66706666 10.04320247 -33 10 C-33 9.34 -33 8.68 -33 8 C-28.94729935 6.68679401 -24.89056918 5.38716372 -20.82958984 4.09985352 C-19.44917583 3.6601889 -18.06992377 3.21685842 -16.69189453 2.76977539 C-14.70901048 2.12716084 -12.72229895 1.49791704 -10.734375 0.87109375 C-8.94338379 0.29766235 -8.94338379 0.29766235 -7.11621094 -0.28735352 C-4.16397994 -0.96249942 -2.77092486 -1.08257995 0 0 Z " fill="#582261" transform="translate(273,29)"/>
<path d="M0 0 C0.66 0.66 1.32 1.32 2 2 C0.53515625 3.20442708 -0.9296875 4.40885417 -2.39453125 5.61328125 C-4.00903269 7.00780196 -5.50995992 8.47416317 -7 10 C-6.08476562 10.26554687 -5.16953125 10.53109375 -4.2265625 10.8046875 C-3.03804687 11.15789062 -1.84953125 11.51109375 -0.625 11.875 C1.15003906 12.39707031 1.15003906 12.39707031 2.9609375 12.9296875 C6 14 6 14 8 16 C3.83326479 17.79341438 0.25336659 16.01173384 -3.75 14.5625 C-4.44738281 14.31951172 -5.14476562 14.07652344 -5.86328125 13.82617188 C-7.57885098 13.22689752 -9.28989715 12.61470115 -11 12 C-11 10.68 -11 9.36 -11 8 C-8.59375 5.859375 -8.59375 5.859375 -5.5 3.75 C-3.96859375 2.69039062 -3.96859375 2.69039062 -2.40625 1.609375 C-1.6121875 1.07828125 -0.818125 0.5471875 0 0 Z " fill="#842952" transform="translate(180,248)"/>
<path d="M0 0 C3.04964687 2.95723332 5.99754634 5.99958942 8.875 9.125 C9.49117187 9.78757812 10.10734375 10.45015625 10.7421875 11.1328125 C11.15726562 11.74898438 11.57234375 12.36515625 12 13 C11.67 13.99 11.34 14.98 11 16 C6.13134425 13.49190461 2.73763565 9.90710024 -1 6 C-1.66 5.34 -2.32 4.68 -3 4 C-2.01 4 -1.02 4 0 4 C0 2.68 0 1.36 0 0 Z " fill="#9D365C" transform="translate(246,320)"/>
<path d="M0 0 C0.99 0 1.98 0 3 0 C4.025561 4.67200013 3.74197115 8.30084938 3 13 C3 14.19625 3 15.3925 3 16.625 C3 19.60677183 2.69921327 22.11574526 2 25 C2.66 25 3.32 25 4 25 C3.34 26.32 2.68 27.64 2 29 C1.67 29 1.34 29 1 29 C-0.30433619 23.06372979 -0.11086318 17.16667748 -0.0625 11.125 C-0.05798828 10.05507812 -0.05347656 8.98515625 -0.04882812 7.8828125 C-0.03709749 5.25515014 -0.02068228 2.62760462 0 0 Z " fill="#903566" transform="translate(49,210)"/>
<path d="M0 0 C8.54234789 1.81869342 16.76842586 4.07816197 25 7 C25 7.66 25 8.32 25 9 C18.94575531 9.31864446 15.44213973 8.61641333 10 6 C8.67723944 5.62691369 7.34767923 5.26953585 6 5 C6 4.34 6 3.68 6 3 C4.35 3 2.7 3 1 3 C0.67 2.01 0.34 1.02 0 0 Z " fill="#5E245F" transform="translate(425,61)"/>
<path d="M0 0 C8.57192993 1.42201008 16.83089625 4.10033615 25 7 C25 7.66 25 8.32 25 9 C19.555 8.505 19.555 8.505 14 8 C14 7.34 14 6.68 14 6 C12.75283203 5.83564453 12.75283203 5.83564453 11.48046875 5.66796875 C9.85044922 5.43013672 9.85044922 5.43013672 8.1875 5.1875 C7.10855469 5.03667969 6.02960938 4.88585938 4.91796875 4.73046875 C1.93559009 3.98387597 0.85776521 3.37924316 -1 1 C-0.67 0.67 -0.34 0.34 0 0 Z " fill="#54245C" transform="translate(347,38)"/>
<path d="M0 0 C2.31 0.33 4.62 0.66 7 1 C7 1.66 7 2.32 7 3 C3.92452896 4.06596076 0.83880623 5.09838661 -2.25 6.125 C-3.55904297 6.57939453 -3.55904297 6.57939453 -4.89453125 7.04296875 C-6.16103516 7.45869141 -6.16103516 7.45869141 -7.453125 7.8828125 C-8.22817383 8.14465332 -9.00322266 8.40649414 -9.80175781 8.67626953 C-12.51549816 9.07591632 -13.71081389 8.42732122 -16 7 C-12.32901071 5.3762932 -8.91018898 3.91237743 -5 3 C-3.3255761 2.3530635 -1.65697379 1.69040574 0 1 C0 0.67 0 0.34 0 0 Z " fill="#592155" transform="translate(503,90)"/>
<path d="M0 0 C0.66 0 1.32 0 2 0 C3.32915021 7.97490128 3.08801359 15.94186719 3 24 C3.99 24.33 4.98 24.66 6 25 C6 25.33 6 25.66 6 26 C4.02 26.33 2.04 26.66 0 27 C0 18.09 0 9.18 0 0 Z " fill="#833266" transform="translate(173,160)"/>
<path d="M0 0 C2.01991436 2.01991436 2.86357724 3.59333334 4.125 6.125 C6.92261563 11.30857011 10.673781 15.06024225 15 19 C14.34 19.99 13.68 20.98 13 22 C12.278125 21.113125 11.55625 20.22625 10.8125 19.3125 C9.07687846 17.21303712 7.35967569 15.39016732 5.375 13.5 C2.09053819 10.04267178 0.12652022 6.93997673 -0.1875 2.125 C-0.125625 1.42375 -0.06375 0.7225 0 0 Z " fill="#782751" transform="translate(65,219)"/>
<path d="M0 0 C0.763125 0.20625 1.52625 0.4125 2.3125 0.625 C2.3125 1.285 2.3125 1.945 2.3125 2.625 C2.9725 2.955 3.6325 3.285 4.3125 3.625 C-3.34890603 5.79573171 -3.34890603 5.79573171 -7.6875 4.625 C-10.02864367 4.89813343 -12.36500658 5.22302999 -14.6875 5.625 C-14.3575 4.635 -14.0275 3.645 -13.6875 2.625 C-10.70898438 2.33203125 -10.70898438 2.33203125 -7.73046875 2.0390625 C-4.45384086 1.37496583 -3.50765338 -0.48944001 0 0 Z " fill="#582251" transform="translate(258.6875,97.375)"/>
<path d="M0 0 C0.33 0 0.66 0 1 0 C1.02505615 0.87213135 1.0501123 1.7442627 1.07592773 2.64282227 C1.17157363 5.90627763 1.27077356 9.16958608 1.37231445 12.43286133 C1.41538658 13.84004557 1.45707864 15.24727282 1.49731445 16.65454102 C1.5556957 18.68779408 1.61918685 20.72083617 1.68359375 22.75390625 C1.72025146 23.97408447 1.75690918 25.1942627 1.79467773 26.45141602 C2.00081086 30.01401411 2.44468315 33.47640588 3 37 C2.01 37.495 2.01 37.495 1 38 C-0.58645357 34.82709287 -0.12078213 31.41174616 -0.09765625 27.9296875 C-0.0962413 27.13345978 -0.09482635 26.33723206 -0.09336853 25.51687622 C-0.08776345 22.9695462 -0.07521014 20.42230353 -0.0625 17.875 C-0.05748565 16.14974085 -0.05292263 14.42448033 -0.04882812 12.69921875 C-0.03779237 8.46611209 -0.02052436 4.23307086 0 0 Z " fill="#A5305E" transform="translate(284,285)"/>
<path d="M0 0 C0.99 0 1.98 0 3 0 C2.53444296 6.40140935 0.85288164 11.26769829 -2 17 C-2.66 16.67 -3.32 16.34 -4 16 C-3.7834375 15.18595703 -3.7834375 15.18595703 -3.5625 14.35546875 C-2.69525583 10.72388381 -2.12389548 7.04328975 -1.5 3.36328125 C-1 1 -1 1 0 0 Z " fill="#7F244F" transform="translate(531,237)"/>
<path d="M0 0 C0.66 0.33 1.32 0.66 2 1 C-0.06252576 5.58002044 -3.06398621 8.90334319 -7 12 C-10.4375 12.9375 -10.4375 12.9375 -13 13 C-8.66666667 8.66666667 -4.33333333 4.33333333 0 0 Z " fill="#79244C" transform="translate(510,232)"/>
<path d="M0 0 C1.3778771 3.13153887 0.90076044 4.28779473 -0.25 7.625 C-2 11 -2 11 -5 13 C-4.67 10.69 -4.34 8.38 -4 6 C-5.32 5.34 -6.64 4.68 -8 4 C-2.25 0 -2.25 0 0 0 Z " fill="#862D5E" transform="translate(308,216)"/>
<path d="M0 0 C1.37478516 0.01740234 1.37478516 0.01740234 2.77734375 0.03515625 C3.69644531 0.04417969 4.61554688 0.05320312 5.5625 0.0625 C6.27277344 0.07410156 6.98304688 0.08570313 7.71484375 0.09765625 C8.04484375 0.75765625 8.37484375 1.41765625 8.71484375 2.09765625 C6.0930255 2.82029864 3.46860383 3.52614717 0.83984375 4.22265625 C0.09347656 4.43019531 -0.65289062 4.63773437 -1.421875 4.8515625 C-3.35506404 5.35662991 -5.32004342 5.73620844 -7.28515625 6.09765625 C-7.94515625 5.43765625 -8.60515625 4.77765625 -9.28515625 4.09765625 C-8.31578125 3.62328125 -7.34640625 3.14890625 -6.34765625 2.66015625 C-1.23739506 0.05288013 -1.23739506 0.05288013 0 0 Z " fill="#963059" transform="translate(404.28515625,290.90234375)"/>
<path d="M0 0 C0.66 0.99 1.32 1.98 2 3 C1.2349015 6.40043777 0.44661183 7.6908072 -2.4375 9.6875 C-3.283125 10.120625 -4.12875 10.55375 -5 11 C-5.99 11.66 -6.98 12.32 -8 13 C-8.99 12.67 -9.98 12.34 -11 12 C-10.28972656 11.30132812 -9.57945312 10.60265625 -8.84765625 9.8828125 C-7.92855469 8.97273437 -7.00945312 8.06265625 -6.0625 7.125 C-4.68771484 5.76761719 -4.68771484 5.76761719 -3.28515625 4.3828125 C-0.98812373 2.22317745 -0.98812373 2.22317745 0 0 Z " fill="#862555" transform="translate(192,235)"/>
<path d="M0 0 C2.58567818 0.25556122 5.16739048 0.52877041 7.75 0.8125 C8.47960937 0.88275391 9.20921875 0.95300781 9.9609375 1.02539062 C14.12097328 1.49812196 16.93697904 2.05788776 20 5 C15.36733774 6.43027825 11.6905884 5.39403523 7.1875 4.0625 C6.49462891 3.86720703 5.80175781 3.67191406 5.08789062 3.47070312 C3.38910039 2.99035554 1.69413405 2.49651979 0 2 C0 1.34 0 0.68 0 0 Z " fill="#7F2C61" transform="translate(335,167)"/>
<path d="M0 0 C5.38412575 -0.51277388 7.6614719 0.95379942 12 4 C14.7282504 4.78215588 14.7282504 4.78215588 17 5 C17 5.66 17 6.32 17 7 C17.99 7 18.98 7 20 7 C19.67 7.99 19.34 8.98 19 10 C12.73 7.03 6.46 4.06 0 1 C0 0.67 0 0.34 0 0 Z " fill="#8D2E52" transform="translate(210,305)"/>
<path d="M0 0 C5.28 1.32 10.56 2.64 16 4 C15.67 4.66 15.34 5.32 15 6 C13.24929483 5.88529863 11.49942464 5.75780972 9.75 5.625 C8.77546875 5.55539063 7.8009375 5.48578125 6.796875 5.4140625 C4.10366811 5.01534751 2.33036721 4.36492937 0 3 C0 2.01 0 1.02 0 0 Z " fill="#5A2459" transform="translate(466,73)"/>
<path d="M0 0 C0.66 0.33 1.32 0.66 2 1 C1.67 1.33 1.34 1.66 1 2 C1.66 2.66 2.32 3.32 3 4 C2.01 4.495 2.01 4.495 1 5 C0.67 5.99 0.34 6.98 0 8 C-0.7425 8.12375 -1.485 8.2475 -2.25 8.375 C-4.80141485 8.95486701 -6.7267573 9.73708739 -9 11 C-6.92623208 6.33402219 -4.25832657 2.83888438 0 0 Z " fill="#B93266" transform="translate(349,311)"/>
<path d="M0 0 C3.50632803 1.603605 6.50549521 3.679853 9.625 5.9375 C11.06746094 6.97197266 11.06746094 6.97197266 12.5390625 8.02734375 C15 10 15 10 17 13 C16.01 13.495 16.01 13.495 15 14 C14.360625 13.29875 13.72125 12.5975 13.0625 11.875 C10.04127976 8.81024633 6.54571122 6.66873038 2.890625 4.4296875 C1 3 1 3 0 0 Z " fill="#96325E" transform="translate(217,295)"/>
<path d="M0 0 C3.58522876 1.47065925 5.44386096 3.40065542 7.8125 6.4375 C8.43769531 7.21996094 9.06289063 8.00242188 9.70703125 8.80859375 C10.34705078 9.89333984 10.34705078 9.89333984 11 11 C10.67 11.99 10.34 12.98 10 14 C6.07511907 10.29939798 2.97784457 6.5093075 0 2 C0 1.34 0 0.68 0 0 Z " fill="#7C2B54" transform="translate(384,227)"/>
<path d="M0 0 C0.66 0.33 1.32 0.66 2 1 C2.36666667 6.5 2.36666667 6.5 0.625 8.875 C-1 10 -1 10 -3 10 C-3 10.66 -3 11.32 -3 12 C-4.32 11.67 -5.64 11.34 -7 11 C-6.57847656 10.37351563 -6.15695312 9.74703125 -5.72265625 9.1015625 C-4.90087891 7.87566406 -4.90087891 7.87566406 -4.0625 6.625 C-3.24458984 5.40683594 -3.24458984 5.40683594 -2.41015625 4.1640625 C-0.98906121 2.07280816 -0.98906121 2.07280816 0 0 Z " fill="#822457" transform="translate(518,220)"/>
<path d="M0 0 C2.27467581 1.09677235 4.54454524 2.20198422 6.8125 3.3125 C7.45509766 3.62123047 8.09769531 3.92996094 8.75976562 4.24804688 C11.95607616 5.82136035 14.70577107 7.22816208 17 10 C12.62807276 10 11.50422654 9.34886317 7.9375 7.0625 C5.23324685 5.342351 3.0502459 4.01674863 0 3 C0 2.01 0 1.02 0 0 Z " fill="#8E2F52" transform="translate(199,284)"/>
<path d="M0 0 C0.33 0 0.66 0 1 0 C1 2.97 1 5.94 1 9 C1.66 9 2.32 9 3 9 C3.28875 9.969375 3.5775 10.93875 3.875 11.9375 C4.64214682 15.10664203 4.64214682 15.10664203 7 16 C6.67 17.32 6.34 18.64 6 20 C3 19 3 19 2.05078125 17.28515625 C0.09482942 11.39660287 -0.34860127 6.1844448 0 0 Z " fill="#732150" transform="translate(302,229)"/>
<path d="M0 0 C0 3.63 0 7.26 0 11 C-1.65 11.33 -3.3 11.66 -5 12 C-4.71905418 10.1858073 -4.42493567 8.37364999 -4.125 6.5625 C-3.96257813 5.55316406 -3.80015625 4.54382813 -3.6328125 3.50390625 C-3.42398438 2.67761719 -3.21515625 1.85132813 -3 1 C-1 0 -1 0 0 0 Z " fill="#782553" transform="translate(55,194)"/>
<path d="M0 0 C0.33 0 0.66 0 1 0 C1.66 5.94 2.32 11.88 3 18 C2.67 17.01 2.34 16.02 2 15 C1.34 15 0.68 15 0 15 C-0.39143394 13.25360243 -0.76254287 11.50264082 -1.125 9.75 C-1.33382812 8.77546875 -1.54265625 7.8009375 -1.7578125 6.796875 C-2.0202996 3.76557234 -1.61988849 2.51982654 0 0 Z " fill="#731F4E" transform="translate(533,201)"/>
<path d="M0 0 C-2.72920071 2.85325529 -5.49185677 4.24592839 -9 6 C-9.99 5.34 -10.98 4.68 -12 4 C-12 3.34 -12 2.68 -12 2 C-10.56656 1.46809459 -9.12804633 0.94984742 -7.6875 0.4375 C-6.48673828 0.00244141 -6.48673828 0.00244141 -5.26171875 -0.44140625 C-3 -1 -3 -1 0 0 Z " fill="#5F2157" transform="translate(79,86)"/>
<path d="M0 0 C0 0.99 0 1.98 0 3 C-1.5811292 3.50692692 -3.16501383 4.00526443 -4.75 4.5 C-5.63171875 4.7784375 -6.5134375 5.056875 -7.421875 5.34375 C-10 6 -10 6 -14 6 C-14 5.34 -14 4.68 -14 4 C-12.0429132 3.32968281 -10.08428887 2.66385317 -8.125 2 C-7.03445313 1.62875 -5.94390625 1.2575 -4.8203125 0.875 C-2 0 -2 0 0 0 Z " fill="#4D2359" transform="translate(288,23)"/>
<path d="M0 0 C0.66 0 1.32 0 2 0 C2 0.66 2 1.32 2 2 C3.32 2.33 4.64 2.66 6 3 C6 5.31 6 7.62 6 10 C5.01 10 4.02 10 3 10 C0 3.375 0 3.375 0 0 Z " fill="#B03B64" transform="translate(281,352)"/>
<path d="M0 0 C-4.58112182 4.38194261 -10.91061589 5 -17 5 C-17 4.34 -17 3.68 -17 3 C-14.54383175 2.30378686 -12.0855877 1.61775372 -9.625 0.9375 C-8.57699219 0.63875977 -8.57699219 0.63875977 -7.5078125 0.33398438 C-2.2265625 -1.11328125 -2.2265625 -1.11328125 0 0 Z " fill="#722354" transform="translate(258,179)"/>
<path d="M0 0 C3.63 0 7.26 0 11 0 C11.33 0.66 11.66 1.32 12 2 C10.25364835 2.53293835 8.50272348 3.05090663 6.75 3.5625 C5.77546875 3.85253906 4.8009375 4.14257812 3.796875 4.44140625 C1.03756068 4.99249836 -0.3912824 4.93789609 -3 4 C-2.01 3.67 -1.02 3.34 0 3 C0 2.01 0 1.02 0 0 Z " fill="#602455" transform="translate(182,115)"/>
<path d="M0 0 C-2.76280538 1.84187025 -4.80707826 2.72248277 -7.9375 3.6875 C-8.79214844 3.95949219 -9.64679688 4.23148438 -10.52734375 4.51171875 C-13.10510574 5.02075548 -14.54449337 4.84888744 -17 4 C-14.23719462 2.15812975 -12.19292174 1.27751723 -9.0625 0.3125 C-7.78052734 -0.09548828 -7.78052734 -0.09548828 -6.47265625 -0.51171875 C-3.89489426 -1.02075548 -2.45550663 -0.84888744 0 0 Z " fill="#4B1F55" transform="translate(273,29)"/>
<path d="M0 0 C5.94 1.485 5.94 1.485 12 3 C12 3.66 12 4.32 12 5 C8.37 5 4.74 5 1 5 C0.67 3.35 0.34 1.7 0 0 Z " fill="#4E205B" transform="translate(300,24)"/>
<path d="M0 0 C1.9375 0.6875 1.9375 0.6875 4 2 C4.75 4.625 4.75 4.625 5 7 C5.66 7 6.32 7 7 7 C7.33 8.65 7.66 10.3 8 12 C7.01 12.495 7.01 12.495 6 13 C4.99491199 11.21118264 3.99607264 9.41885304 3 7.625 C2.1646875 6.12839844 2.1646875 6.12839844 1.3125 4.6015625 C0 2 0 2 0 0 Z " fill="#892C4E" transform="translate(270,333)"/>
<path d="M0 0 C0.66 0 1.32 0 2 0 C3.22485812 2.44971624 3.16722808 4.14234461 3.1875 6.875 C3.20167969 7.73867187 3.21585937 8.60234375 3.23046875 9.4921875 C2.98859252 12.1241288 2.32983541 13.73980544 1 16 C0.08342019 10.61509359 -0.11138159 5.45769811 0 0 Z " fill="#692152" transform="translate(374,191)"/>
<path d="M0 0 C4.84575497 -0.57008882 7.20793332 1.09543829 11 4 C12.36886951 5.29682374 13.7169291 6.61823134 15 8 C14.01 8.495 14.01 8.495 13 9 C12.154375 8.4225 11.30875 7.845 10.4375 7.25 C7.05211361 4.98768929 3.55187841 2.98905191 0 1 C0 0.67 0 0.34 0 0 Z " fill="#873151" transform="translate(229,315)"/>
<path d="M0 0 C1.75029762 0.31082872 3.50022694 0.62373179 5.25 0.9375 C6.71179688 1.19853516 6.71179688 1.19853516 8.203125 1.46484375 C10.49721795 1.90379729 12.74291971 2.40348592 15 3 C15 3.99 15 4.98 15 6 C9.72 4.68 4.44 3.36 -1 2 C-0.67 1.34 -0.34 0.68 0 0 Z " fill="#762757" transform="translate(392,182)"/>
<path d="M0 0 C0.99 0.33 1.98 0.66 3 1 C3.94921875 3.06640625 3.94921875 3.06640625 4.6875 5.5625 C4.93886719 6.38878906 5.19023438 7.21507812 5.44921875 8.06640625 C5.63097656 8.70449219 5.81273437 9.34257812 6 10 C5.34 10 4.68 10 4 10 C3.34 9.01 2.68 8.02 2 7 C1.01 7.495 1.01 7.495 0 8 C-0.38063221 5.6739143 -0.71269945 3.33944736 -1 1 C-0.67 0.67 -0.34 0.34 0 0 Z " fill="#5C264E" transform="translate(523,174)"/>
<path d="M0 0 C2.97 0.99 5.94 1.98 9 3 C9 3.99 9 4.98 9 6 C7.68 6.33 6.36 6.66 5 7 C5 6.01 5 5.02 5 4 C3.35 4.33 1.7 4.66 0 5 C0 3.35 0 1.7 0 0 Z " fill="#562256" transform="translate(508,85)"/>
<path d="M0 0 C2.64 0 5.28 0 8 0 C8.33 0.66 8.66 1.32 9 2 C3.72 2.66 -1.56 3.32 -7 4 C-7.33 3.34 -7.66 2.68 -8 2 C-5.36 2 -2.72 2 0 2 C0 1.34 0 0.68 0 0 Z " fill="#8A2E51" transform="translate(476,281)"/>
<path d="M0 0 C-2.48830503 2.48830503 -4.8677934 3.30825691 -8.125 4.625 C-9.22070312 5.07101562 -10.31640625 5.51703125 -11.4453125 5.9765625 C-12.28835938 6.31429688 -13.13140625 6.65203125 -14 7 C-14.33 6.01 -14.66 5.02 -15 4 C-13.06767179 3.13419713 -11.12892806 2.28270059 -9.1875 1.4375 C-8.10855469 0.96183594 -7.02960938 0.48617188 -5.91796875 -0.00390625 C-3 -1 -3 -1 0 0 Z " fill="#7E2A54" transform="translate(397,265)"/>
<path d="M0 0 C0.33 0.99 0.66 1.98 1 3 C-2.36423277 5.96052484 -5.69159287 6.92289822 -10 8 C-10.33 7.01 -10.66 6.02 -11 5 C-7.37 3.35 -3.74 1.7 0 0 Z " fill="#902B57" transform="translate(487,250)"/>
<path d="M0 0 C2.86867231 1.38264837 5.56024032 2.92148553 8.25 4.625 C8.95640625 5.07101563 9.6628125 5.51703125 10.390625 5.9765625 C10.92171875 6.31429687 11.4528125 6.65203125 12 7 C11.34 7.66 10.68 8.32 10 9 C6.79540067 8.88949657 5.75662241 7.77400652 3.375 5.5625 C2.59125 4.716875 1.8075 3.87125 1 3 C0.34 2.34 -0.32 1.68 -1 1 C-0.67 0.67 -0.34 0.34 0 0 Z " fill="#7D2953" transform="translate(83,242)"/>
<path d="M0 0 C0.99 0.33 1.98 0.66 3 1 C2.67 5.62 2.34 10.24 2 15 C0.2999114 11.5998228 -0.32111638 9.96676075 -0.6875 6.375 C-0.77386719 5.59898437 -0.86023438 4.82296875 -0.94921875 4.0234375 C-1 2 -1 2 0 0 Z " fill="#781C47" transform="translate(533,222)"/>
<path d="M0 0 C-4.63698228 4.63698228 -9.74303344 5.46060633 -16 6 C-16 5.34 -16 4.68 -16 4 C-14.03430173 3.26702776 -12.06845362 2.53445276 -10.1015625 1.8046875 C-8.44351014 1.16981987 -6.80991947 0.47107532 -5.1875 -0.25 C-3 -1 -3 -1 0 0 Z " fill="#7E2857" transform="translate(240,184)"/>
<path d="M0 0 C-2.77042109 2.77042109 -4.76533805 2.39796106 -8.625 2.625 C-9.81351562 2.69976562 -11.00203125 2.77453125 -12.2265625 2.8515625 C-13.59941406 2.92503906 -13.59941406 2.92503906 -15 3 C-14.67 2.01 -14.34 1.02 -14 0 C-8.97703996 -1.13016601 -5.02125926 -0.77916092 0 0 Z " fill="#6A2455" transform="translate(298,156)"/>
<path d="M0 0 C0 0.99 0 1.98 0 3 C-2.10009873 3.55723019 -4.20528465 4.09531745 -6.3125 4.625 C-7.48425781 4.92664063 -8.65601562 5.22828125 -9.86328125 5.5390625 C-13 6 -13 6 -16 4 C-13.70922959 3.33011414 -11.41748541 2.66396838 -9.125 2 C-8.47402344 1.80921875 -7.82304688 1.6184375 -7.15234375 1.421875 C-2.2265625 0 -2.2265625 0 0 0 Z " fill="#562053" transform="translate(112,75)"/>
<path d="M0 0 C1.95903745 0.47627975 3.91721097 0.95611423 5.875 1.4375 C6.96554687 1.70433594 8.05609375 1.97117188 9.1796875 2.24609375 C12 3 12 3 14 4 C14 4.66 14 5.32 14 6 C9.33333333 5.33333333 4.66666667 4.66666667 0 4 C0 2.68 0 1.36 0 0 Z " fill="#4F1B53" transform="translate(392,51)"/>
<path d="M0 0 C0.66 0.99 1.32 1.98 2 3 C-0.31 6.3 -2.62 9.6 -5 13 C-5.66 12.67 -6.32 12.34 -7 12 C-6.1875 9.0625 -6.1875 9.0625 -5 6 C-4.01 5.67 -3.02 5.34 -2 5 C-0.78130071 2.49552484 -0.78130071 2.49552484 0 0 Z " fill="#932F54" transform="translate(322,318)"/>
<path d="M0 0 C0.66 0.33 1.32 0.66 2 1 C0.4114658 5.28904235 -2.43127368 7.32345526 -6 10 C-6.66 10 -7.32 10 -8 10 C-7.49396008 7.83125748 -7.00016187 6.00032373 -6 4 C-2.9375 3.375 -2.9375 3.375 0 3 C0 2.01 0 1.02 0 0 Z " fill="#832953" transform="translate(354,286)"/>
<path d="M0 0 C-2.60542016 1.73694677 -4.58342775 2.69100448 -7.5 3.6875 C-8.2734375 3.95949219 -9.046875 4.23148437 -9.84375 4.51171875 C-12 5 -12 5 -15 4 C-12.60939149 2.40626099 -10.69171821 1.34702924 -8.0625 0.3125 C-7.39347656 0.04050781 -6.72445313 -0.23148437 -6.03515625 -0.51171875 C-3.67169662 -1.0787676 -2.2807201 -0.76024003 0 0 Z " fill="#912D53" transform="translate(501,277)"/>
<path d="M0 0 C0.66 1.32 1.32 2.64 2 4 C0.02 6.64 -1.96 9.28 -4 12 C-4.99 11.67 -5.98 11.34 -7 11 C-4.69 7.37 -2.38 3.74 0 0 Z " fill="#73234E" transform="translate(200,223)"/>
<path d="M0 0 C0.99 0.33 1.98 0.66 3 1 C2.34 1 1.68 1 1 1 C1 3.97 1 6.94 1 10 C1.66 10.33 2.32 10.66 3 11 C-1 11 -1 11 -4 10 C-4 9.34 -4 8.68 -4 8 C-3.34 8 -2.68 8 -2 8 C-1.34 5.36 -0.68 2.72 0 0 Z " fill="#902A67" transform="translate(57,185)"/>
<path d="M0 0 C-1 2 -1 2 -2.9609375 2.88671875 C-3.75757813 3.15097656 -4.55421875 3.41523437 -5.375 3.6875 C-6.16648438 3.95949219 -6.95796875 4.23148437 -7.7734375 4.51171875 C-10 5 -10 5 -13 4 C-10.96180154 1.96180154 -9.70582202 1.32158941 -7.0625 0.3125 C-6.37285156 0.04050781 -5.68320313 -0.23148437 -4.97265625 -0.51171875 C-3 -1 -3 -1 0 0 Z " fill="#5F1E55" transform="translate(246,106)"/>
<path d="M0 0 C2.8203125 0.4609375 2.8203125 0.4609375 6.125 1.375 C7.22070312 1.67148438 8.31640625 1.96796875 9.4453125 2.2734375 C10.28835938 2.51320313 11.13140625 2.75296875 12 3 C11.34 3.66 10.68 4.32 10 5 C5.65093573 4.67176873 1.9657368 3.80260764 -2 2 C-1.34 1.34 -0.68 0.68 0 0 Z " fill="#5B245B" transform="translate(453,69)"/>
<path d="M0 0 C0.99 0.66 1.98 1.32 3 2 C1.76265016 3.03613033 0.50955363 4.05347802 -0.75 5.0625 C-1.79414063 5.91521484 -1.79414063 5.91521484 -2.859375 6.78515625 C-5 8 -5 8 -9 7 C-6.03 4.69 -3.06 2.38 0 0 Z " fill="#912A56" transform="translate(364,296)"/>
<path d="M0 0 C4.61513112 1.31860889 8.09897612 3.21355437 12 6 C11.34 6.66 10.68 7.32 10 8 C6.37 6.02 2.74 4.04 -1 2 C-0.67 1.34 -0.34 0.68 0 0 Z " fill="#7D2A51" transform="translate(207,273)"/>
<path d="M0 0 C1.32 0.33 2.64 0.66 4 1 C4 1.66 4 2.32 4 3 C-0.12168689 4.62950412 -2.70700357 5.26264601 -7 4 C-7 3.34 -7 2.68 -7 2 C-4.69 2 -2.38 2 0 2 C0 1.34 0 0.68 0 0 Z " fill="#772759" transform="translate(196,179)"/>
<path d="M0 0 C-0.33 0.99 -0.66 1.98 -1 3 C-3.50390625 3.94921875 -3.50390625 3.94921875 -6.5625 4.6875 C-7.57441406 4.93886719 -8.58632813 5.19023437 -9.62890625 5.44921875 C-10.41136719 5.63097656 -11.19382812 5.81273437 -12 6 C-12.33 5.34 -12.66 4.68 -13 4 C-11.2097939 3.32942113 -9.41778511 2.6636531 -7.625 2 C-6.62726563 1.62875 -5.62953125 1.2575 -4.6015625 0.875 C-2 0 -2 0 0 0 Z " fill="#8B244D" transform="translate(413,273)"/>
<path d="M0 0 C0.66 0.33 1.32 0.66 2 1 C1.125 8.75 1.125 8.75 0 11 C-0.99 11 -1.98 11 -3 11 C-2.01 7.37 -1.02 3.74 0 0 Z " fill="#7B2552" transform="translate(522,209)"/>
<path d="M0 0 C2.3125 0.171875 2.3125 0.171875 5 0.75 C6.3303125 1.02070312 6.3303125 1.02070312 7.6875 1.296875 C10 2 10 2 12 4 C8.36804504 5.21065165 6.93468371 4.62784815 3.3125 3.5625 C1.82169922 3.13130859 1.82169922 3.13130859 0.30078125 2.69140625 C-0.45847656 2.46324219 -1.21773438 2.23507813 -2 2 C-1.34 1.34 -0.68 0.68 0 0 Z " fill="#571F54" transform="translate(82,93)"/>
<path d="M0 0 C2.0625 0.4375 2.0625 0.4375 4 1 C3.09650406 2.01191545 2.17659153 3.00918926 1.25 4 C0.48429687 4.8353125 0.48429687 4.8353125 -0.296875 5.6875 C-2 7 -2 7 -6 7 C-6 6.34 -6 5.68 -6 5 C-5.01 5 -4.02 5 -3 5 C-2.5359375 4.0409375 -2.5359375 4.0409375 -2.0625 3.0625 C-1 1 -1 1 0 0 Z " fill="#8E2D54" transform="translate(336,302)"/>
<path d="M0 0 C3.63 0 7.26 0 11 0 C11.33 0.99 11.66 1.98 12 3 C8.04 2.67 4.08 2.34 0 2 C0 1.34 0 0.68 0 0 Z " fill="#8D3051" transform="translate(105,282)"/>
<path d="M0 0 C1.18851563 0.28746094 2.37703125 0.57492187 3.6015625 0.87109375 C4.51679687 1.09925781 5.43203125 1.32742188 6.375 1.5625 C6.045 2.2225 5.715 2.8825 5.375 3.5625 C3.79032272 3.27822583 2.2072943 2.98475182 0.625 2.6875 C-0.69757813 2.44386719 -0.69757813 2.44386719 -2.046875 2.1953125 C-4.49447744 1.59453736 -6.43099857 0.78252883 -8.625 -0.4375 C-5.54978317 -1.97510842 -3.27824882 -0.80349236 0 0 Z " fill="#812E51" transform="translate(96.625,279.4375)"/>
<path d="M0 0 C-2.88138209 2.24107496 -5.74679343 4.33168894 -9 6 C-9.99 5.67 -10.98 5.34 -12 5 C-8.77464852 1.23708994 -4.90542108 -1.63514036 0 0 Z " fill="#7E2850" transform="translate(382,272)"/>
<path d="M0 0 C2 3 2 3 1.375 6.5625 C0 10 0 10 -2.0859375 11.21484375 C-3.03339844 11.60349609 -3.03339844 11.60349609 -4 12 C-2.66666667 8 -1.33333333 4 0 0 Z " fill="#6A2248" transform="translate(205,211)"/>
<path d="M0 0 C-2.42130331 2.42130331 -3.80111377 2.52840504 -7.125 3.125 C-8.03507813 3.29257813 -8.94515625 3.46015625 -9.8828125 3.6328125 C-10.58148438 3.75398437 -11.28015625 3.87515625 -12 4 C-12.33 3.34 -12.66 2.68 -13 2 C-11.5882217 1.46605821 -10.17029756 0.94834896 -8.75 0.4375 C-7.96109375 0.14746094 -7.1721875 -0.14257812 -6.359375 -0.44140625 C-3.80896548 -1.04522837 -2.44677771 -0.8473932 0 0 Z " fill="#7A2859" transform="translate(236,171)"/>
<path d="M0 0 C-2.88628401 1.57554035 -5.53342384 2.46276373 -8.75 3.125 C-9.54921875 3.29257813 -10.3484375 3.46015625 -11.171875 3.6328125 C-11.77515625 3.75398438 -12.3784375 3.87515625 -13 4 C-13.33 3.34 -13.66 2.68 -14 2 C-4.58997722 -1.62870159 -4.58997722 -1.62870159 0 0 Z " fill="#5A2252" transform="translate(454,109)"/>
<path d="M0 0 C3.4375 0.1875 3.4375 0.1875 7 1 C8.4375 3.0625 8.4375 3.0625 9 5 C6.69 4.34 4.38 3.68 2 3 C1.67 4.32 1.34 5.64 1 7 C1 5.35 1 3.7 1 2 C0.34 1.67 -0.32 1.34 -1 1 C-0.67 0.67 -0.34 0.34 0 0 Z " fill="#882B59" transform="translate(298,245)"/>
<path d="M0 0 C0.33 0.99 0.66 1.98 1 3 C-0.11375 3.45375 -1.2275 3.9075 -2.375 4.375 C-5.96199008 5.72465986 -5.96199008 5.72465986 -8 8 C-8.33 6.68 -8.66 5.36 -9 4 C-6.03 2.68 -3.06 1.36 0 0 Z " fill="#602351" transform="translate(182,128)"/>
<path d="M0 0 C-2 3 -2 3 -4.3828125 3.51171875 C-5.28773438 3.56972656 -6.19265625 3.62773438 -7.125 3.6875 C-8.03507813 3.75324219 -8.94515625 3.81898437 -9.8828125 3.88671875 C-10.93082031 3.94279297 -10.93082031 3.94279297 -12 4 C-12 3.34 -12 2.68 -12 2 C-10.37787941 1.47026689 -8.75218416 0.95146893 -7.125 0.4375 C-6.22007812 0.14746094 -5.31515625 -0.14257812 -4.3828125 -0.44140625 C-2 -1 -2 -1 0 0 Z " fill="#532054" transform="translate(174,58)"/>
<path d="M0 0 C5.445 1.485 5.445 1.485 11 3 C11 3.66 11 4.32 11 5 C6.37390802 5.3227506 3.71973879 4.84450614 0 2 C0 1.34 0 0.68 0 0 Z " fill="#4E2158" transform="translate(334,34)"/>
<path d="M0 0 C1.875 0.3125 1.875 0.3125 4 1 C4.66 1.99 5.32 2.98 6 4 C6.99 4.33 7.98 4.66 9 5 C8.67 5.99 8.34 6.98 8 8 C4.97009905 6.28032649 2.23672704 4.70761694 0 2 C0 1.34 0 0.68 0 0 Z " fill="#702543" transform="translate(249,328)"/>
<path d="M0 0 C-3.19990508 2.74277578 -6.00499382 4.6302836 -10 6 C-10.66 5.34 -11.32 4.68 -12 4 C-10.56988027 3.13353333 -9.13059381 2.28218171 -7.6875 1.4375 C-6.48673828 0.72400391 -6.48673828 0.72400391 -5.26171875 -0.00390625 C-3 -1 -3 -1 0 0 Z " fill="#8F274C" transform="translate(385,286)"/>
<path d="M0 0 C3.19199167 2.41556126 5.74716687 4.68003538 8 8 C3.68607774 7.5206753 1.83430453 6.2542015 -1 3 C-0.67 2.01 -0.34 1.02 0 0 Z " fill="#912D5D" transform="translate(62,259)"/>
<path d="M0 0 C-3.41016497 2.86453858 -6.90694544 4.34703566 -11 6 C-11 5.01 -11 4.02 -11 3 C-9.73581754 2.30034557 -8.46334598 1.61565237 -7.1875 0.9375 C-6.47980469 0.55464844 -5.77210938 0.17179687 -5.04296875 -0.22265625 C-3 -1 -3 -1 0 0 Z " fill="#8C2E55" transform="translate(374,305)"/>
<path d="M0 0 C4.455 2.97 4.455 2.97 9 6 C8.67 6.66 8.34 7.32 8 8 C4.18315774 6.44499019 1.80804268 3.96404505 -1 1 C-0.67 0.67 -0.34 0.34 0 0 Z " fill="#7B284E" transform="translate(223,282)"/>
<path d="M0 0 C-2.96178773 1.67110042 -5.37071192 2.32682752 -8.75 2.625 C-9.54921875 2.69976562 -10.3484375 2.77453125 -11.171875 2.8515625 C-11.77515625 2.90054688 -12.3784375 2.94953125 -13 3 C-12 1 -12 1 -8.75 -0.1875 C-5.22790825 -0.95061988 -3.38319499 -1.0252106 0 0 Z " fill="#702A52" transform="translate(186,185)"/>
<path d="M0 0 C-3 2 -3 2 -6 2 C-6.33 2.66 -6.66 3.32 -7 4 C-8.32 4 -9.64 4 -11 4 C-11 3.01 -11 2.02 -11 1 C-3.57142857 -1.42857143 -3.57142857 -1.42857143 0 0 Z " fill="#752555" transform="translate(278,174)"/>
<path d="M0 0 C4.875 4.625 4.875 4.625 6 8 C5.01 8 4.02 8 3 8 C0.75 5.6875 0.75 5.6875 -1 3 C-0.67 2.01 -0.34 1.02 0 0 Z " fill="#812B4F" transform="translate(257,313)"/>
<path d="M0 0 C3.67420866 0.30618405 4.78135513 0.75771784 7.3125 3.5625 C8.1478125 4.7690625 8.1478125 4.7690625 9 6 C8.01 6.33 7.02 6.66 6 7 C4.5 5.625 4.5 5.625 3 4 C3 3.34 3 2.68 3 2 C2.01 1.67 1.02 1.34 0 1 C0 0.67 0 0.34 0 0 Z " fill="#7B2849" transform="translate(247,305)"/>
<path d="M0 0 C3.3 0.99 6.6 1.98 10 3 C10 3.66 10 4.32 10 5 C7.69 5 5.38 5 3 5 C3 4.34 3 3.68 3 3 C2.01 2.67 1.02 2.34 0 2 C0 1.34 0 0.68 0 0 Z " fill="#852D58" transform="translate(114,258)"/>
<path d="M0 0 C1.09658936 3.28976808 0.79953138 4.71303767 0 8 C0.66 8 1.32 8 2 8 C1.34 9.32 0.68 10.64 0 12 C-0.33 12 -0.66 12 -1 12 C-1.33 8.37 -1.66 4.74 -2 1 C-1.34 0.67 -0.68 0.34 0 0 Z " fill="#752949" transform="translate(51,227)"/>
<path d="M0 0 C4.95 0.99 4.95 0.99 10 2 C9.01 2.99 8.02 3.98 7 5 C4.69 4.34 2.38 3.68 0 3 C0 2.01 0 1.02 0 0 Z " fill="#6B2856" transform="translate(312,174)"/>
<path d="M0 0 C0.33 0.99 0.66 1.98 1 3 C-1.97 3.66 -4.94 4.32 -8 5 C-8 4.01 -8 3.02 -8 2 C-5.36 1.34 -2.72 0.68 0 0 Z " fill="#5F2450" transform="translate(425,115)"/>
<path d="M0 0 C0.515625 0.37125 1.03125 0.7425 1.5625 1.125 C-1.88995824 3.42663882 -3.38488713 3.46990322 -7.4375 3.125 C-8.0975 2.465 -8.7575 1.805 -9.4375 1.125 C-3.0375 -1.09038462 -3.0375 -1.09038462 0 0 Z " fill="#552251" transform="translate(122.4375,72.875)"/>
<path d="M0 0 C0.66 0.33 1.32 0.66 2 1 C0.84414715 4.91211733 -0.35534962 7.8745041 -3 11 C-2.25 3.375 -2.25 3.375 0 0 Z " fill="#8F2B4C" transform="translate(306,343)"/>
<path d="M0 0 C1.17487036 0.75827092 2.33972592 1.53207755 3.5 2.3125 C4.47453125 2.95638672 4.47453125 2.95638672 5.46875 3.61328125 C5.9740625 4.07089844 6.479375 4.52851563 7 5 C7 5.99 7 6.98 7 8 C5.1875 7.8125 5.1875 7.8125 3 7 C0 2.82142857 0 2.82142857 0 0 Z " fill="#812A5C" transform="translate(409,252)"/>
<path d="M0 0 C2.5625 2.25 2.5625 2.25 5 5 C4.8125 7.3125 4.8125 7.3125 4 9 C0 4.5 0 4.5 0 0 Z " fill="#7F2854" transform="translate(57,252)"/>
<path d="M0 0 C0.99 0.66 1.98 1.32 3 2 C0.1875 4.0625 0.1875 4.0625 -3 6 C-3.99 5.67 -4.98 5.34 -6 5 C-4.06745228 2.9754262 -2.36841312 1.57894208 0 0 Z " fill="#832555" transform="translate(495,245)"/>
<path d="M0 0 C1.46726798 3.81489674 0.43336419 6.29011622 -1 10 C-1.66 9.34 -2.32 8.68 -3 8 C-2.54545455 2.54545455 -2.54545455 2.54545455 0 0 Z " fill="#942E63" transform="translate(526,202)"/>
<path d="M0 0 C2.31 0.33 4.62 0.66 7 1 C7 1.66 7 2.32 7 3 C4.69 3.33 2.38 3.66 0 4 C0 2.66666667 0 1.33333333 0 0 Z " fill="#652660" transform="translate(503,90)"/>
<path d="M0 0 C0.66 0.99 1.32 1.98 2 3 C0.68 5.31 -0.64 7.62 -2 10 C-2.66 8.68 -3.32 7.36 -4 6 C-2.68 4.02 -1.36 2.04 0 0 Z " fill="#982952" transform="translate(313,331)"/>
<path d="M0 0 C1.50433594 0.01353516 1.50433594 0.01353516 3.0390625 0.02734375 C3.80992187 0.03894531 4.58078125 0.05054688 5.375 0.0625 C5.375 0.3925 5.375 0.7225 5.375 1.0625 C3.725 1.3925 2.075 1.7225 0.375 2.0625 C0.375 2.3925 0.375 2.7225 0.375 3.0625 C-2.5 3.1875 -2.5 3.1875 -5.625 3.0625 C-6.285 2.4025 -6.945 1.7425 -7.625 1.0625 C-4.98041621 -0.25979189 -2.94738699 -0.03427194 0 0 Z " fill="#8D2C54" transform="translate(458.625,282.9375)"/>
<path d="M0 0 C0.66 0.33 1.32 0.66 2 1 C0.49776416 5.20626034 -2.28550034 6.73900021 -6 9 C-5.52797514 4.75177626 -3.03344482 2.80010291 0 0 Z " fill="#762348" transform="translate(519,262)"/>
<path d="M0 0 C1.31722179 0.42307123 2.62872664 0.86397486 3.9375 1.3125 C4.66839844 1.55613281 5.39929688 1.79976563 6.15234375 2.05078125 C8 3 8 3 9 6 C5.08788267 4.84414715 2.1254959 3.64465038 -1 1 C-0.67 0.67 -0.34 0.34 0 0 Z " fill="#7E2A50" transform="translate(189,264)"/>
<path d="M0 0 C2.31 1.98 4.62 3.96 7 6 C6.01 7.485 6.01 7.485 5 9 C1.7457985 6.16569547 0.4793247 4.31392226 0 0 Z " fill="#6A2347" transform="translate(73,232)"/>
<path d="M0 0 C0.33 0 0.66 0 1 0 C1.33 3.3 1.66 6.6 2 10 C1.01 10.495 1.01 10.495 0 11 C-1.62651522 7.74696956 -1.11453156 4.60774398 -1 1 C-0.67 0.67 -0.34 0.34 0 0 Z " fill="#742050" transform="translate(60,199)"/>
<path d="M0 0 C0 0.66 0 1.32 0 2 C-1.4117783 2.53394179 -2.82970244 3.05165104 -4.25 3.5625 C-5.03890625 3.85253906 -5.8278125 4.14257812 -6.640625 4.44140625 C-9.19103452 5.04522837 -10.55322229 4.8473932 -13 4 C-10.34531286 2.23020858 -8.92500069 1.57859829 -5.9375 0.875 C-5.24527344 0.70742187 -4.55304688 0.53984375 -3.83984375 0.3671875 C-2 0 -2 0 0 0 Z " fill="#662350" transform="translate(291,169)"/>
<path d="M0 0 C0 0.66 0 1.32 0 2 C-2.375 3.0625 -2.375 3.0625 -5 4 C-5.66 3.67 -6.32 3.34 -7 3 C-7 3.66 -7 4.32 -7 5 C-8.32 4.34 -9.64 3.68 -11 3 C-9.73160474 2.49384702 -8.46016898 1.99530901 -7.1875 1.5 C-6.12595703 1.08234375 -6.12595703 1.08234375 -5.04296875 0.65625 C-3 0 -3 0 0 0 Z " fill="#592349" transform="translate(195,124)"/>
<path d="M0 0 C4.95 0.99 4.95 0.99 10 2 C7 4 7 4 3.8125 3.625 C2.884375 3.41875 1.95625 3.2125 1 3 C0.67 2.01 0.34 1.02 0 0 Z " fill="#551C54" transform="translate(496,82)"/>
<path d="M0 0 C1.20076172 0.31324219 1.20076172 0.31324219 2.42578125 0.6328125 C3.23402344 0.83648437 4.04226563 1.04015625 4.875 1.25 C5.48988281 1.41757812 6.10476563 1.58515625 6.73828125 1.7578125 C6.07828125 2.4178125 5.41828125 3.0778125 4.73828125 3.7578125 C2.35546875 3.515625 2.35546875 3.515625 -0.38671875 2.8828125 C-1.29679687 2.67914063 -2.206875 2.47546875 -3.14453125 2.265625 C-3.84320313 2.09804688 -4.541875 1.93046875 -5.26171875 1.7578125 C-2.26171875 -0.2421875 -2.26171875 -0.2421875 0 0 Z " fill="#4C2255" transform="translate(326.26171875,31.2421875)"/>
<path d="M0 0 C0 3 0 3 -2 6 C-1.01 6 -0.02 6 1 6 C0.67 6.99 0.34 7.98 0 9 C-2.475 8.01 -2.475 8.01 -5 7 C-3.47793991 4.37098712 -2.15634036 2.15634036 0 0 Z " fill="#892551" transform="translate(338,319)"/>
<path d="M0 0 C1.32 0.99 2.64 1.98 4 3 C3.67 4.32 3.34 5.64 3 7 C2.67 6.34 2.34 5.68 2 5 C1.01 5.33 0.02 5.66 -1 6 C-1.66 5.34 -2.32 4.68 -3 4 C-2.01 4 -1.02 4 0 4 C0 2.68 0 1.36 0 0 Z " fill="#923054" transform="translate(246,320)"/>
<path d="M0 0 C3.3 0 6.6 0 10 0 C10 0.66 10 1.32 10 2 C5.545 2.495 5.545 2.495 1 3 C0.67 2.01 0.34 1.02 0 0 Z " fill="#6D2950" transform="translate(289,221)"/>
<path d="M0 0 C0.66 0 1.32 0 2 0 C1.67 2.64 1.34 5.28 1 8 C0.01 8 -0.98 8 -2 8 C-1.125 1.125 -1.125 1.125 0 0 Z " fill="#75254E" transform="translate(208,203)"/>
<path d="M0 0 C3.63 0.66 7.26 1.32 11 2 C10.67 2.66 10.34 3.32 10 4 C6.7 3.34 3.4 2.68 0 2 C0 1.34 0 0.68 0 0 Z " fill="#752652" transform="translate(335,167)"/>
<path d="M0 0 C-1 3 -1 3 -3.375 4.1875 C-6 5 -6 5 -9 5 C-9 4.34 -9 3.68 -9 3 C-2.25 0 -2.25 0 0 0 Z " fill="#622554" transform="translate(210,118)"/>
<path d="M0 0 C3.3 0.66 6.6 1.32 10 2 C6 4 6 4 2.25 3.125 C1.1775 2.75375 0.105 2.3825 -1 2 C-0.67 1.34 -0.34 0.68 0 0 Z " fill="#5D2253" transform="translate(149,113)"/>
<path d="M0 0 C-3.44450737 2.29633824 -5.93812283 2.54016485 -10 3 C-9.67 2.01 -9.34 1.02 -9 0 C-5.62182575 -0.84454356 -3.32534757 -1.10844919 0 0 Z " fill="#5D2353" transform="translate(205,113)"/>
<path d="M0 0 C3.80909895 0.32417863 5.78372163 0.85581442 9 3 C4.99799622 4.60080151 1.95443764 3.29279692 -2 2 C-1.34 1.34 -0.68 0.68 0 0 Z " fill="#5B2153" transform="translate(133,108)"/>
<path d="M0 0 C-0.66 1.32 -1.32 2.64 -2 4 C-3.98 4 -5.96 4 -8 4 C-8.33 3.34 -8.66 2.68 -9 2 C-2.25 0 -2.25 0 0 0 Z " fill="#521E54" transform="translate(143,66)"/>
<path d="M0 0 C-0.33 0.99 -0.66 1.98 -1 3 C-3.31 3.33 -5.62 3.66 -8 4 C-4.5 0 -4.5 0 0 0 Z " fill="#5F2464" transform="translate(210,47)"/>
<path d="M0 0 C0.99 0.66 1.98 1.32 3 2 C0.6875 4.0625 0.6875 4.0625 -2 6 C-2.99 5.67 -3.98 5.34 -5 5 C-3.35 3.35 -1.7 1.7 0 0 Z " fill="#8D2E56" transform="translate(345,318)"/>
<path d="M0 0 C4.95 0.99 4.95 0.99 10 2 C9.67 2.66 9.34 3.32 9 4 C4.545 3.01 4.545 3.01 0 2 C0 1.34 0 0.68 0 0 Z " fill="#8C2D52" transform="translate(176,292)"/>
<path d="M0 0 C-0.33 0.99 -0.66 1.98 -1 3 C-4.375 3.625 -4.375 3.625 -8 4 C-8.66 3.34 -9.32 2.68 -10 2 C-3.375 0 -3.375 0 0 0 Z " fill="#81264D" transform="translate(459,262)"/>
<path d="M0 0 C0.99 0.33 1.98 0.66 3 1 C2.34 2.65 1.68 4.3 1 6 C0.01 6 -0.98 6 -2 6 C-2 4.35 -2 2.7 -2 1 C-1.34 0.67 -0.68 0.34 0 0 Z " fill="#9F3359" transform="translate(300,355)"/>
<path d="M0 0 C2.86697492 1.28519565 4.97607712 2.57129254 7 5 C7 5.66 7 6.32 7 7 C3.63983107 5.87994369 2.30935087 4.62788203 0 2 C0 1.34 0 0.68 0 0 Z " fill="#B93568" transform="translate(239,317)"/>
<path d="M0 0 C2.97 0.495 2.97 0.495 6 1 C5.01 1.33 4.02 1.66 3 2 C2.67 2.99 2.34 3.98 2 5 C0.68 4.67 -0.64 4.34 -2 4 C-1.34 2.68 -0.68 1.36 0 0 Z " fill="#802353" transform="translate(279,245)"/>
<path d="M0 0 C1.76462683 3.08809695 2 4.23312136 2 8 C0.68 7.67 -0.64 7.34 -2 7 C-1.34 4.69 -0.68 2.38 0 0 Z " fill="#6C214B" transform="translate(531,192)"/>
<path d="M0 0 C-2.96687001 1.64826111 -5.65626525 2.44271087 -9 3 C-8.67 2.01 -8.34 1.02 -8 0 C-4.71023192 -1.09658936 -3.28696233 -0.79953138 0 0 Z " fill="#6C264D" transform="translate(223,175)"/>
<path d="M0 0 C0 0.66 0 1.32 0 2 C-2.97 2.66 -5.94 3.32 -9 4 C-9 3.34 -9 2.68 -9 2 C-3.375 0 -3.375 0 0 0 Z " fill="#561C59" transform="translate(161,61)"/>
<path d="M0 0 C0.99 0.33 1.98 0.66 3 1 C0.87219421 3.34058637 -1.11562221 4.70700306 -4 6 C-3.6875 4.125 -3.6875 4.125 -3 2 C-2.01 1.34 -1.02 0.68 0 0 Z " fill="#8A3051" transform="translate(353,313)"/>
<path d="M0 0 C2.64 0.33 5.28 0.66 8 1 C8 1.66 8 2.32 8 3 C2.25 3.125 2.25 3.125 0 2 C0 1.34 0 0.68 0 0 Z " fill="#832B50" transform="translate(149,268)"/>
<path d="M0 0 C1.125 3.75 1.125 3.75 0 6 C-1.32 6 -2.64 6 -4 6 C-3.6875 4.125 -3.6875 4.125 -3 2 C-2.01 1.34 -1.02 0.68 0 0 Z " fill="#802859" transform="translate(54,200)"/>
<path d="M0 0 C-0.99 1.485 -0.99 1.485 -2 3 C-5.625 3.1875 -5.625 3.1875 -9 3 C-9 2.34 -9 1.68 -9 1 C-5.64919071 -1.10976881 -3.77897651 -1.0497157 0 0 Z " fill="#892C67" transform="translate(226,172)"/>
<path d="M0 0 C-2.97 0.66 -5.94 1.32 -9 2 C-8.67 1.01 -8.34 0.02 -8 -1 C-3.375 -2.25 -3.375 -2.25 0 0 Z " fill="#65295C" transform="translate(253,101)"/>
<path d="M0 0 C4.455 0.99 4.455 0.99 9 2 C5 4 5 4 1.75 3.125 C0.8425 2.75375 -0.065 2.3825 -1 2 C-0.67 1.34 -0.34 0.68 0 0 Z " fill="#481F4F" transform="translate(408,56)"/>
<path d="M0 0 C0 0.66 0 1.32 0 2 C-4.43076923 4.09230769 -4.43076923 4.09230769 -7.3125 3.625 C-7.869375 3.41875 -8.42625 3.2125 -9 3 C-3 0 -3 0 0 0 Z " fill="#481C4A" transform="translate(184,54)"/>
<path d="M0 0 C4.455 0.99 4.455 0.99 9 2 C5 4 5 4 2.25 3.125 C1.5075 2.75375 0.765 2.3825 0 2 C0 1.34 0 0.68 0 0 Z " fill="#491E55" transform="translate(313,28)"/>
<path d="M0 0 C2.97 0.33 5.94 0.66 9 1 C8 3 8 3 6.1875 3.875 C4 4 4 4 1.75 2.0625 C1.1725 1.381875 0.595 0.70125 0 0 Z " fill="#411A49" transform="translate(290,22)"/>
<path d="M0 0 C0.99 0 1.98 0 3 0 C3 1.98 3 3.96 3 6 C2.01 6 1.02 6 0 6 C0 4.02 0 2.04 0 0 Z " fill="#B93063" transform="translate(300,349)"/>
<path d="M0 0 C-2.38573379 1.89213369 -4.07175348 3.02391783 -7 4 C-7 3.01 -7 2.02 -7 1 C-3.375 -1.125 -3.375 -1.125 0 0 Z " fill="#943051" transform="translate(509,273)"/>
<path d="M0 0 C2.31 0.66 4.62 1.32 7 2 C6.67 2.66 6.34 3.32 6 4 C3.03 3.505 3.03 3.505 0 3 C0 2.01 0 1.02 0 0 Z " fill="#8B2C52" transform="translate(106,255)"/>
<path d="M0 0 C2.88575819 0.39803561 3.82189513 0.79009069 5.75 3.0625 C6.1625 3.701875 6.575 4.34125 7 5 C4.0625 4.1875 4.0625 4.1875 1 3 C0.67 2.01 0.34 1.02 0 0 Z " fill="#662446" transform="translate(399,245)"/>
<path d="M0 0 C0.66 0 1.32 0 2 0 C2.33 2.31 2.66 4.62 3 7 C2.01 6.67 1.02 6.34 0 6 C0 4.02 0 2.04 0 0 Z " fill="#8F295F" transform="translate(533,216)"/>
<path d="M0 0 C0.99 0 1.98 0 3 0 C3.625 2.875 3.625 2.875 4 6 C3.34 6.66 2.68 7.32 2 8 C2 7.01 2 6.02 2 5 C1.34 5 0.68 5 0 5 C0 3.35 0 1.7 0 0 Z " fill="#682048" transform="translate(49,210)"/>
<path d="M0 0 C0.66 0.66 1.32 1.32 2 2 C1.6730244 4.61580479 1.17960932 6.64078137 0 9 C-0.66 8.67 -1.32 8.34 -2 8 C-1.34 5.36 -0.68 2.72 0 0 Z " fill="#6C1D50" transform="translate(55,184)"/>
<path d="M0 0 C2 3 2 3 1.625 5.1875 C1.41875 5.785625 1.2125 6.38375 1 7 C-0.5 5.6875 -0.5 5.6875 -2 4 C-2 3.01 -2 2.02 -2 1 C-1.34 0.67 -0.68 0.34 0 0 Z " fill="#6F1D4D" transform="translate(529,186)"/>
<path d="M0 0 C4.455 0.99 4.455 0.99 9 2 C5 4 5 4 2.8125 3.8125 C2.214375 3.544375 1.61625 3.27625 1 3 C0.67 2.01 0.34 1.02 0 0 Z " fill="#6D2957" transform="translate(311,160)"/>
<path d="M0 0 C1.65 0 3.3 0 5 0 C5.33 1.32 5.66 2.64 6 4 C3.69 3.34 1.38 2.68 -1 2 C-0.67 1.34 -0.34 0.68 0 0 Z " fill="#6A224D" transform="translate(299,157)"/>
<path d="M0 0 C0.99 0.33 1.98 0.66 3 1 C1.8125 2.5625 1.8125 2.5625 0 4 C-2.6875 3.6875 -2.6875 3.6875 -5 3 C-2 1 -2 1 0 0 Z " fill="#592050" transform="translate(251,102)"/>
<path d="M0 0 C-0.33 0.99 -0.66 1.98 -1 3 C-3.875 3.625 -3.875 3.625 -7 4 C-7.66 3.34 -8.32 2.68 -9 2 C-2.25 0 -2.25 0 0 0 Z " fill="#441843" transform="translate(132,69)"/>
</svg>
